<mxfile host="app.diagrams.net" agent="Mozilla/5.0 (Windows NT 10.0; Win64; x64; rv:138.0) Gecko/20100101 Firefox/138.0" version="26.2.14">
  <diagram id="C5RBs43oDa-KdzZeNtuy" name="Page-1">
    <mxGraphModel dx="4402" dy="1139" grid="1" gridSize="10" guides="1" tooltips="1" connect="1" arrows="1" fold="1" page="1" pageScale="1" pageWidth="2336" pageHeight="1654" math="0" shadow="0">
      <root>
        <mxCell id="WIyWlLk6GJQsqaUBKTNV-0" />
        <mxCell id="WIyWlLk6GJQsqaUBKTNV-1" parent="WIyWlLk6GJQsqaUBKTNV-0" />
        <mxCell id="F7fUJA4CXwOD2tqX9iZF-29" style="rounded=0;orthogonalLoop=1;jettySize=auto;html=1;" parent="WIyWlLk6GJQsqaUBKTNV-1" edge="1">
          <mxGeometry relative="1" as="geometry">
            <mxPoint x="1287" y="99.99999999999955" as="sourcePoint" />
          </mxGeometry>
        </mxCell>
        <mxCell id="_xtLVecPUBUWVg5fJALY-261" value="" style="verticalLabelPosition=bottom;verticalAlign=top;html=1;shape=card;whiteSpace=wrap;size=20;arcSize=12;fontStyle=1;strokeWidth=2;rounded=1;shadow=0;flipH=0;" parent="WIyWlLk6GJQsqaUBKTNV-1" vertex="1">
          <mxGeometry x="-1803" y="510" width="1690" height="690" as="geometry" />
        </mxCell>
        <mxCell id="_xtLVecPUBUWVg5fJALY-170" value="" style="verticalLabelPosition=bottom;verticalAlign=top;html=1;shape=card;whiteSpace=wrap;size=20;arcSize=12;fontStyle=1;strokeWidth=2;rounded=1;shadow=0;" parent="WIyWlLk6GJQsqaUBKTNV-1" vertex="1">
          <mxGeometry x="-1569" y="619.06" width="380.5" height="290" as="geometry" />
        </mxCell>
        <mxCell id="_xtLVecPUBUWVg5fJALY-251" value="" style="verticalLabelPosition=bottom;verticalAlign=top;html=1;shape=card;whiteSpace=wrap;size=20;arcSize=12;fontStyle=1;strokeWidth=2;rounded=1;shadow=0;" parent="WIyWlLk6GJQsqaUBKTNV-1" vertex="1">
          <mxGeometry x="-1783" y="683.5999999999999" width="190" height="248.99" as="geometry" />
        </mxCell>
        <mxCell id="_xtLVecPUBUWVg5fJALY-8" value="" style="verticalLabelPosition=bottom;verticalAlign=top;html=1;shape=card;whiteSpace=wrap;size=20;arcSize=12;fontStyle=1;strokeWidth=2;rounded=1;shadow=0;flipH=1;" parent="WIyWlLk6GJQsqaUBKTNV-1" vertex="1">
          <mxGeometry x="-1163" y="529.06" width="721.5" height="650" as="geometry" />
        </mxCell>
        <mxCell id="F7fUJA4CXwOD2tqX9iZF-300" value="" style="verticalLabelPosition=bottom;verticalAlign=top;html=1;shape=card;whiteSpace=wrap;size=20;arcSize=12;fontStyle=1;strokeWidth=2;rounded=1;shadow=0;" parent="WIyWlLk6GJQsqaUBKTNV-1" vertex="1">
          <mxGeometry x="-1796.5" y="214" width="670" height="246" as="geometry" />
        </mxCell>
        <mxCell id="F7fUJA4CXwOD2tqX9iZF-260" value="" style="verticalLabelPosition=bottom;verticalAlign=top;html=1;shape=card;whiteSpace=wrap;size=20;arcSize=12;fontStyle=1;strokeWidth=2;rounded=1;shadow=0;" parent="WIyWlLk6GJQsqaUBKTNV-1" vertex="1">
          <mxGeometry x="-2310" y="238.05999999999995" width="432" height="740" as="geometry" />
        </mxCell>
        <mxCell id="F7fUJA4CXwOD2tqX9iZF-326" value="" style="verticalLabelPosition=bottom;verticalAlign=top;html=1;shape=card;whiteSpace=wrap;size=20;arcSize=12;fontStyle=1;strokeWidth=2;rounded=1;shadow=0;" parent="WIyWlLk6GJQsqaUBKTNV-1" vertex="1">
          <mxGeometry x="-2042.5" y="310" width="130" height="170" as="geometry" />
        </mxCell>
        <mxCell id="F7fUJA4CXwOD2tqX9iZF-243" value="" style="verticalLabelPosition=bottom;verticalAlign=top;html=1;shape=card;whiteSpace=wrap;size=20;arcSize=12;fontStyle=1;strokeWidth=2;rounded=1;shadow=0;" parent="WIyWlLk6GJQsqaUBKTNV-1" vertex="1">
          <mxGeometry x="-2289" y="303.25" width="202" height="656" as="geometry" />
        </mxCell>
        <mxCell id="F7fUJA4CXwOD2tqX9iZF-58" value="" style="verticalLabelPosition=bottom;verticalAlign=top;html=1;shape=card;whiteSpace=wrap;size=20;arcSize=12;fontStyle=1;strokeWidth=2;rounded=1;shadow=0;" parent="WIyWlLk6GJQsqaUBKTNV-1" vertex="1">
          <mxGeometry x="-431.5" y="720.31" width="290" height="285" as="geometry" />
        </mxCell>
        <mxCell id="F7fUJA4CXwOD2tqX9iZF-9" value="Game Exits" style="strokeWidth=2;html=1;shape=mxgraph.flowchart.terminator;whiteSpace=wrap;fillColor=#f8cecc;strokeColor=#b85450;" parent="WIyWlLk6GJQsqaUBKTNV-1" vertex="1">
          <mxGeometry x="-1406.5" y="399" width="80" height="37" as="geometry" />
        </mxCell>
        <mxCell id="F7fUJA4CXwOD2tqX9iZF-27" style="rounded=0;orthogonalLoop=1;jettySize=auto;html=1;" parent="WIyWlLk6GJQsqaUBKTNV-1" source="F7fUJA4CXwOD2tqX9iZF-31" target="F7fUJA4CXwOD2tqX9iZF-24" edge="1">
          <mxGeometry relative="1" as="geometry" />
        </mxCell>
        <mxCell id="F7fUJA4CXwOD2tqX9iZF-344" style="edgeStyle=none;shape=connector;rounded=0;orthogonalLoop=1;jettySize=auto;html=1;strokeColor=default;align=center;verticalAlign=middle;fontFamily=Helvetica;fontSize=11;fontColor=default;labelBackgroundColor=default;endArrow=classic;" parent="WIyWlLk6GJQsqaUBKTNV-1" source="F7fUJA4CXwOD2tqX9iZF-24" target="F7fUJA4CXwOD2tqX9iZF-343" edge="1">
          <mxGeometry relative="1" as="geometry" />
        </mxCell>
        <mxCell id="F7fUJA4CXwOD2tqX9iZF-24" value="Loads &lt;b&gt;Map Scene&lt;/b&gt;" style="rounded=1;whiteSpace=wrap;html=1;fontSize=12;glass=0;strokeWidth=1;shadow=0;" parent="WIyWlLk6GJQsqaUBKTNV-1" vertex="1">
          <mxGeometry x="-1696.5" y="346" width="120" height="40" as="geometry" />
        </mxCell>
        <mxCell id="F7fUJA4CXwOD2tqX9iZF-30" style="edgeStyle=orthogonalEdgeStyle;rounded=0;orthogonalLoop=1;jettySize=auto;html=1;" parent="WIyWlLk6GJQsqaUBKTNV-1" source="F7fUJA4CXwOD2tqX9iZF-26" target="F7fUJA4CXwOD2tqX9iZF-31" edge="1">
          <mxGeometry relative="1" as="geometry">
            <mxPoint x="-2009.5" y="309" as="targetPoint" />
          </mxGeometry>
        </mxCell>
        <mxCell id="F7fUJA4CXwOD2tqX9iZF-26" value="Player InputMap set active" style="rounded=1;whiteSpace=wrap;html=1;fontSize=12;glass=0;strokeWidth=1;shadow=0;" parent="WIyWlLk6GJQsqaUBKTNV-1" vertex="1">
          <mxGeometry x="-1436.5" y="346" width="150" height="40" as="geometry" />
        </mxCell>
        <mxCell id="F7fUJA4CXwOD2tqX9iZF-31" value="Cursor Hidden" style="rounded=1;whiteSpace=wrap;html=1;fontSize=12;glass=0;strokeWidth=1;shadow=0;" parent="WIyWlLk6GJQsqaUBKTNV-1" vertex="1">
          <mxGeometry x="-1556.5" y="346" width="90" height="40" as="geometry" />
        </mxCell>
        <mxCell id="F7fUJA4CXwOD2tqX9iZF-50" value="Player HUD" style="text;html=1;align=center;verticalAlign=middle;whiteSpace=wrap;rounded=0;fontStyle=1" parent="WIyWlLk6GJQsqaUBKTNV-1" vertex="1">
          <mxGeometry x="-431.5" y="720.31" width="90" height="40" as="geometry" />
        </mxCell>
        <mxCell id="F7fUJA4CXwOD2tqX9iZF-51" value="Health" style="strokeWidth=2;html=1;shape=mxgraph.flowchart.display;whiteSpace=wrap;" parent="WIyWlLk6GJQsqaUBKTNV-1" vertex="1">
          <mxGeometry x="-231.5" y="760.31" width="70" height="39" as="geometry" />
        </mxCell>
        <mxCell id="F7fUJA4CXwOD2tqX9iZF-52" value="Ammo" style="strokeWidth=2;html=1;shape=mxgraph.flowchart.display;whiteSpace=wrap;" parent="WIyWlLk6GJQsqaUBKTNV-1" vertex="1">
          <mxGeometry x="-231.5" y="819.31" width="70" height="39" as="geometry" />
        </mxCell>
        <mxCell id="F7fUJA4CXwOD2tqX9iZF-53" value="Reticle" style="strokeWidth=2;html=1;shape=mxgraph.flowchart.display;whiteSpace=wrap;" parent="WIyWlLk6GJQsqaUBKTNV-1" vertex="1">
          <mxGeometry x="-231.5" y="879.31" width="70" height="39" as="geometry" />
        </mxCell>
        <mxCell id="F7fUJA4CXwOD2tqX9iZF-106" value="" style="edgeStyle=none;shape=connector;rounded=0;orthogonalLoop=1;jettySize=auto;html=1;strokeColor=default;align=center;verticalAlign=middle;fontFamily=Helvetica;fontSize=11;fontColor=default;labelBackgroundColor=default;endArrow=classic;" parent="WIyWlLk6GJQsqaUBKTNV-1" source="F7fUJA4CXwOD2tqX9iZF-250" target="F7fUJA4CXwOD2tqX9iZF-105" edge="1">
          <mxGeometry relative="1" as="geometry" />
        </mxCell>
        <mxCell id="F7fUJA4CXwOD2tqX9iZF-259" style="edgeStyle=none;shape=connector;rounded=0;orthogonalLoop=1;jettySize=auto;html=1;strokeColor=default;align=center;verticalAlign=middle;fontFamily=Helvetica;fontSize=11;fontColor=default;labelBackgroundColor=default;endArrow=classic;" parent="WIyWlLk6GJQsqaUBKTNV-1" source="_xtLVecPUBUWVg5fJALY-184" target="F7fUJA4CXwOD2tqX9iZF-250" edge="1">
          <mxGeometry relative="1" as="geometry">
            <mxPoint x="502" y="39.06" as="targetPoint" />
            <mxPoint x="-618" y="-131.44608695652158" as="sourcePoint" />
          </mxGeometry>
        </mxCell>
        <mxCell id="F7fUJA4CXwOD2tqX9iZF-108" value="" style="edgeStyle=none;shape=connector;rounded=0;orthogonalLoop=1;jettySize=auto;html=1;strokeColor=default;align=center;verticalAlign=middle;fontFamily=Helvetica;fontSize=11;fontColor=default;labelBackgroundColor=default;endArrow=classic;" parent="WIyWlLk6GJQsqaUBKTNV-1" source="F7fUJA4CXwOD2tqX9iZF-105" target="F7fUJA4CXwOD2tqX9iZF-107" edge="1">
          <mxGeometry relative="1" as="geometry" />
        </mxCell>
        <mxCell id="F7fUJA4CXwOD2tqX9iZF-105" value="Pause Game" style="whiteSpace=wrap;html=1;rounded=1;glass=0;strokeWidth=1;shadow=0;" parent="WIyWlLk6GJQsqaUBKTNV-1" vertex="1">
          <mxGeometry x="-2234" y="714.25" width="90" height="25" as="geometry" />
        </mxCell>
        <mxCell id="F7fUJA4CXwOD2tqX9iZF-107" value="Set UI InputMap Active" style="whiteSpace=wrap;html=1;rounded=1;glass=0;strokeWidth=1;shadow=0;" parent="WIyWlLk6GJQsqaUBKTNV-1" vertex="1">
          <mxGeometry x="-2259" y="764.25" width="140" height="25" as="geometry" />
        </mxCell>
        <mxCell id="F7fUJA4CXwOD2tqX9iZF-112" value="" style="edgeStyle=none;shape=connector;rounded=0;orthogonalLoop=1;jettySize=auto;html=1;strokeColor=default;align=center;verticalAlign=middle;fontFamily=Helvetica;fontSize=11;fontColor=default;labelBackgroundColor=default;endArrow=classic;" parent="WIyWlLk6GJQsqaUBKTNV-1" source="F7fUJA4CXwOD2tqX9iZF-109" target="F7fUJA4CXwOD2tqX9iZF-111" edge="1">
          <mxGeometry relative="1" as="geometry" />
        </mxCell>
        <mxCell id="F7fUJA4CXwOD2tqX9iZF-109" value="Set Menu Visible" style="whiteSpace=wrap;html=1;rounded=1;glass=0;strokeWidth=1;shadow=0;" parent="WIyWlLk6GJQsqaUBKTNV-1" vertex="1">
          <mxGeometry x="-2259" y="814.25" width="140" height="25" as="geometry" />
        </mxCell>
        <mxCell id="F7fUJA4CXwOD2tqX9iZF-255" style="edgeStyle=none;shape=connector;rounded=0;orthogonalLoop=1;jettySize=auto;html=1;strokeColor=default;align=center;verticalAlign=middle;fontFamily=Helvetica;fontSize=11;fontColor=default;labelBackgroundColor=default;endArrow=classic;" parent="WIyWlLk6GJQsqaUBKTNV-1" source="F7fUJA4CXwOD2tqX9iZF-111" target="F7fUJA4CXwOD2tqX9iZF-254" edge="1">
          <mxGeometry relative="1" as="geometry" />
        </mxCell>
        <mxCell id="F7fUJA4CXwOD2tqX9iZF-111" value="Set Cursor Visible" style="whiteSpace=wrap;html=1;rounded=1;glass=0;strokeWidth=1;shadow=0;" parent="WIyWlLk6GJQsqaUBKTNV-1" vertex="1">
          <mxGeometry x="-2259" y="859.25" width="140" height="25" as="geometry" />
        </mxCell>
        <mxCell id="F7fUJA4CXwOD2tqX9iZF-197" style="edgeStyle=none;shape=connector;rounded=0;orthogonalLoop=1;jettySize=auto;html=1;strokeColor=default;align=center;verticalAlign=middle;fontFamily=Helvetica;fontSize=11;fontColor=default;labelBackgroundColor=default;endArrow=classic;" parent="WIyWlLk6GJQsqaUBKTNV-1" source="F7fUJA4CXwOD2tqX9iZF-120" target="F7fUJA4CXwOD2tqX9iZF-196" edge="1">
          <mxGeometry relative="1" as="geometry" />
        </mxCell>
        <mxCell id="F7fUJA4CXwOD2tqX9iZF-120" value="Un-Pause Game" style="whiteSpace=wrap;html=1;rounded=1;glass=0;strokeWidth=1;shadow=0;" parent="WIyWlLk6GJQsqaUBKTNV-1" vertex="1">
          <mxGeometry x="-2251.5" y="549.25" width="110" height="25" as="geometry" />
        </mxCell>
        <mxCell id="F7fUJA4CXwOD2tqX9iZF-126" style="edgeStyle=none;shape=connector;rounded=0;orthogonalLoop=1;jettySize=auto;html=1;strokeColor=default;align=center;verticalAlign=middle;fontFamily=Helvetica;fontSize=11;fontColor=default;labelBackgroundColor=default;endArrow=classic;" parent="WIyWlLk6GJQsqaUBKTNV-1" source="F7fUJA4CXwOD2tqX9iZF-121" target="F7fUJA4CXwOD2tqX9iZF-120" edge="1">
          <mxGeometry relative="1" as="geometry" />
        </mxCell>
        <mxCell id="F7fUJA4CXwOD2tqX9iZF-121" value="Set Player InputMap Active" style="whiteSpace=wrap;html=1;rounded=1;glass=0;strokeWidth=1;shadow=0;" parent="WIyWlLk6GJQsqaUBKTNV-1" vertex="1">
          <mxGeometry x="-2284" y="501.75" width="175" height="25" as="geometry" />
        </mxCell>
        <mxCell id="F7fUJA4CXwOD2tqX9iZF-122" value="Set Menu Invisible" style="whiteSpace=wrap;html=1;rounded=1;glass=0;strokeWidth=1;shadow=0;" parent="WIyWlLk6GJQsqaUBKTNV-1" vertex="1">
          <mxGeometry x="-2266.5" y="454.25" width="140" height="25" as="geometry" />
        </mxCell>
        <mxCell id="F7fUJA4CXwOD2tqX9iZF-124" style="edgeStyle=none;shape=connector;rounded=0;orthogonalLoop=1;jettySize=auto;html=1;entryX=0.5;entryY=0;entryDx=0;entryDy=0;strokeColor=default;align=center;verticalAlign=middle;fontFamily=Helvetica;fontSize=11;fontColor=default;labelBackgroundColor=default;endArrow=classic;" parent="WIyWlLk6GJQsqaUBKTNV-1" source="F7fUJA4CXwOD2tqX9iZF-123" target="F7fUJA4CXwOD2tqX9iZF-122" edge="1">
          <mxGeometry relative="1" as="geometry" />
        </mxCell>
        <mxCell id="F7fUJA4CXwOD2tqX9iZF-123" value="Set Cursor Visible" style="whiteSpace=wrap;html=1;rounded=1;glass=0;strokeWidth=1;shadow=0;" parent="WIyWlLk6GJQsqaUBKTNV-1" vertex="1">
          <mxGeometry x="-2266.5" y="404.25" width="140" height="25" as="geometry" />
        </mxCell>
        <mxCell id="F7fUJA4CXwOD2tqX9iZF-125" style="edgeStyle=none;shape=connector;rounded=0;orthogonalLoop=1;jettySize=auto;html=1;strokeColor=default;align=center;verticalAlign=middle;fontFamily=Helvetica;fontSize=11;fontColor=default;labelBackgroundColor=default;endArrow=classic;" parent="WIyWlLk6GJQsqaUBKTNV-1" source="F7fUJA4CXwOD2tqX9iZF-122" target="F7fUJA4CXwOD2tqX9iZF-121" edge="1">
          <mxGeometry relative="1" as="geometry" />
        </mxCell>
        <mxCell id="F7fUJA4CXwOD2tqX9iZF-196" value="done" style="ellipse;whiteSpace=wrap;html=1;fontSize=9;rounded=1;glass=0;strokeWidth=1;shadow=0;spacingTop=0;fillColor=#e1d5e7;strokeColor=#9673a6;" parent="WIyWlLk6GJQsqaUBKTNV-1" vertex="1">
          <mxGeometry x="-2211.5" y="599.25" width="30" height="25" as="geometry" />
        </mxCell>
        <mxCell id="F7fUJA4CXwOD2tqX9iZF-235" value="" style="verticalLabelPosition=bottom;verticalAlign=top;html=1;shape=card;whiteSpace=wrap;size=20;arcSize=12;fontStyle=1;strokeWidth=2;rounded=1;shadow=0;" parent="WIyWlLk6GJQsqaUBKTNV-1" vertex="1">
          <mxGeometry x="-421.5" y="762.94" width="173" height="150" as="geometry" />
        </mxCell>
        <mxCell id="F7fUJA4CXwOD2tqX9iZF-236" value="Player HUD Controller" style="text;html=1;align=center;verticalAlign=middle;whiteSpace=wrap;rounded=0;fontStyle=1" parent="WIyWlLk6GJQsqaUBKTNV-1" vertex="1">
          <mxGeometry x="-418.5" y="762.94" width="160" height="40" as="geometry" />
        </mxCell>
        <mxCell id="F7fUJA4CXwOD2tqX9iZF-240" style="edgeStyle=none;shape=connector;rounded=0;orthogonalLoop=1;jettySize=auto;html=1;strokeColor=default;align=center;verticalAlign=middle;fontFamily=Helvetica;fontSize=11;fontColor=default;labelBackgroundColor=default;endArrow=classic;" parent="WIyWlLk6GJQsqaUBKTNV-1" source="F7fUJA4CXwOD2tqX9iZF-237" target="F7fUJA4CXwOD2tqX9iZF-248" edge="1">
          <mxGeometry relative="1" as="geometry">
            <mxPoint x="-248.5" y="832.94" as="targetPoint" />
          </mxGeometry>
        </mxCell>
        <mxCell id="F7fUJA4CXwOD2tqX9iZF-237" value="updateUI" style="whiteSpace=wrap;html=1;rounded=1;glass=0;strokeWidth=1;shadow=0;fontSize=9;" parent="WIyWlLk6GJQsqaUBKTNV-1" vertex="1">
          <mxGeometry x="-391.5" y="814.94" width="73" height="30.06" as="geometry" />
        </mxCell>
        <mxCell id="F7fUJA4CXwOD2tqX9iZF-239" style="edgeStyle=none;shape=connector;rounded=0;orthogonalLoop=1;jettySize=auto;html=1;strokeColor=default;align=center;verticalAlign=middle;fontFamily=Helvetica;fontSize=11;fontColor=default;labelBackgroundColor=default;endArrow=classic;" parent="WIyWlLk6GJQsqaUBKTNV-1" source="_xtLVecPUBUWVg5fJALY-73" target="F7fUJA4CXwOD2tqX9iZF-237" edge="1">
          <mxGeometry relative="1" as="geometry">
            <mxPoint x="8.5" y="929.06" as="sourcePoint" />
          </mxGeometry>
        </mxCell>
        <mxCell id="F7fUJA4CXwOD2tqX9iZF-241" value="Grenades" style="strokeWidth=2;html=1;shape=mxgraph.flowchart.display;whiteSpace=wrap;" parent="WIyWlLk6GJQsqaUBKTNV-1" vertex="1">
          <mxGeometry x="-231.5" y="939.06" width="70" height="39" as="geometry" />
        </mxCell>
        <mxCell id="F7fUJA4CXwOD2tqX9iZF-244" value="MenuController" style="text;html=1;align=center;verticalAlign=middle;whiteSpace=wrap;rounded=0;fontStyle=1" parent="WIyWlLk6GJQsqaUBKTNV-1" vertex="1">
          <mxGeometry x="-2284" y="303.25" width="130" height="40" as="geometry" />
        </mxCell>
        <mxCell id="F7fUJA4CXwOD2tqX9iZF-248" value="done" style="ellipse;whiteSpace=wrap;html=1;fontSize=9;rounded=1;glass=0;strokeWidth=1;shadow=0;spacingTop=0;fillColor=#e1d5e7;strokeColor=#9673a6;" parent="WIyWlLk6GJQsqaUBKTNV-1" vertex="1">
          <mxGeometry x="-371.5" y="865.94" width="30" height="25" as="geometry" />
        </mxCell>
        <mxCell id="F7fUJA4CXwOD2tqX9iZF-250" value="Show Menu" style="whiteSpace=wrap;html=1;rounded=1;glass=0;strokeWidth=1;shadow=0;fillColor=#d5e8d4;strokeColor=#82b366;" parent="WIyWlLk6GJQsqaUBKTNV-1" vertex="1">
          <mxGeometry x="-2239" y="659.25" width="100" height="30" as="geometry" />
        </mxCell>
        <mxCell id="F7fUJA4CXwOD2tqX9iZF-253" style="edgeStyle=none;shape=connector;rounded=0;orthogonalLoop=1;jettySize=auto;html=1;strokeColor=default;align=center;verticalAlign=middle;fontFamily=Helvetica;fontSize=11;fontColor=default;labelBackgroundColor=default;endArrow=classic;" parent="WIyWlLk6GJQsqaUBKTNV-1" source="F7fUJA4CXwOD2tqX9iZF-252" target="F7fUJA4CXwOD2tqX9iZF-123" edge="1">
          <mxGeometry relative="1" as="geometry" />
        </mxCell>
        <mxCell id="F7fUJA4CXwOD2tqX9iZF-252" value="Hide Menu" style="whiteSpace=wrap;html=1;rounded=1;glass=0;strokeWidth=1;shadow=0;fillColor=#d5e8d4;strokeColor=#82b366;" parent="WIyWlLk6GJQsqaUBKTNV-1" vertex="1">
          <mxGeometry x="-2246.5" y="349.25" width="100" height="30" as="geometry" />
        </mxCell>
        <mxCell id="F7fUJA4CXwOD2tqX9iZF-254" value="done" style="ellipse;whiteSpace=wrap;html=1;fontSize=9;rounded=1;glass=0;strokeWidth=1;shadow=0;spacingTop=0;fillColor=#e1d5e7;strokeColor=#9673a6;" parent="WIyWlLk6GJQsqaUBKTNV-1" vertex="1">
          <mxGeometry x="-2204" y="909.25" width="30" height="25" as="geometry" />
        </mxCell>
        <mxCell id="F7fUJA4CXwOD2tqX9iZF-256" value="" style="edgeStyle=none;shape=connector;rounded=0;orthogonalLoop=1;jettySize=auto;html=1;strokeColor=default;align=center;verticalAlign=middle;fontFamily=Helvetica;fontSize=11;fontColor=default;labelBackgroundColor=default;endArrow=classic;" parent="WIyWlLk6GJQsqaUBKTNV-1" source="F7fUJA4CXwOD2tqX9iZF-107" target="F7fUJA4CXwOD2tqX9iZF-109" edge="1">
          <mxGeometry relative="1" as="geometry">
            <mxPoint x="-2189" y="789.25" as="sourcePoint" />
            <mxPoint x="-2189" y="814.25" as="targetPoint" />
          </mxGeometry>
        </mxCell>
        <mxCell id="F7fUJA4CXwOD2tqX9iZF-261" value="UI Canvas" style="text;html=1;align=center;verticalAlign=middle;whiteSpace=wrap;rounded=0;fontStyle=1" parent="WIyWlLk6GJQsqaUBKTNV-1" vertex="1">
          <mxGeometry x="-2300" y="242.05999999999995" width="90" height="40" as="geometry" />
        </mxCell>
        <mxCell id="F7fUJA4CXwOD2tqX9iZF-266" value="Quit Level Button" style="shape=hexagon;perimeter=hexagonPerimeter2;whiteSpace=wrap;html=1;fixedSize=1;fontFamily=Helvetica;fontSize=11;labelBackgroundColor=none;fillColor=#ffe6cc;strokeColor=#d79b00;fontStyle=1" parent="WIyWlLk6GJQsqaUBKTNV-1" vertex="1">
          <mxGeometry x="-2032.5" y="340" width="110" height="30" as="geometry" />
        </mxCell>
        <mxCell id="F7fUJA4CXwOD2tqX9iZF-268" value="clicked" style="edgeStyle=none;shape=connector;rounded=0;orthogonalLoop=1;jettySize=auto;html=1;strokeColor=default;align=center;verticalAlign=middle;fontFamily=Helvetica;fontSize=11;fontColor=default;labelBackgroundColor=default;endArrow=classic;" parent="WIyWlLk6GJQsqaUBKTNV-1" source="F7fUJA4CXwOD2tqX9iZF-267" target="F7fUJA4CXwOD2tqX9iZF-252" edge="1">
          <mxGeometry x="-0.2424" y="6" relative="1" as="geometry">
            <mxPoint as="offset" />
          </mxGeometry>
        </mxCell>
        <mxCell id="F7fUJA4CXwOD2tqX9iZF-267" value="Resume Button" style="shape=hexagon;perimeter=hexagonPerimeter2;whiteSpace=wrap;html=1;fixedSize=1;fontFamily=Helvetica;fontSize=11;labelBackgroundColor=none;fillColor=#ffe6cc;strokeColor=#d79b00;fontStyle=1" parent="WIyWlLk6GJQsqaUBKTNV-1" vertex="1">
          <mxGeometry x="-2032.5" y="390" width="110" height="30" as="geometry" />
        </mxCell>
        <mxCell id="F7fUJA4CXwOD2tqX9iZF-282" value="" style="verticalLabelPosition=bottom;verticalAlign=top;html=1;shape=card;whiteSpace=wrap;size=20;arcSize=12;fontStyle=1;strokeWidth=2;rounded=1;shadow=0;" parent="WIyWlLk6GJQsqaUBKTNV-1" vertex="1">
          <mxGeometry x="-2258" y="1044.06" width="370" height="105" as="geometry" />
        </mxCell>
        <mxCell id="F7fUJA4CXwOD2tqX9iZF-283" value="Pickup" style="text;html=1;align=center;verticalAlign=middle;whiteSpace=wrap;rounded=0;fontStyle=1" parent="WIyWlLk6GJQsqaUBKTNV-1" vertex="1">
          <mxGeometry x="-2258" y="1044.06" width="70" height="40" as="geometry" />
        </mxCell>
        <mxCell id="F7fUJA4CXwOD2tqX9iZF-312" value="" style="edgeStyle=none;shape=connector;rounded=0;orthogonalLoop=1;jettySize=auto;html=1;strokeColor=default;align=center;verticalAlign=middle;fontFamily=Helvetica;fontSize=11;fontColor=default;labelBackgroundColor=default;endArrow=classic;" parent="WIyWlLk6GJQsqaUBKTNV-1" source="F7fUJA4CXwOD2tqX9iZF-313" target="F7fUJA4CXwOD2tqX9iZF-311" edge="1">
          <mxGeometry relative="1" as="geometry" />
        </mxCell>
        <mxCell id="F7fUJA4CXwOD2tqX9iZF-320" value="yes" style="edgeLabel;html=1;align=center;verticalAlign=middle;resizable=0;points=[];fontFamily=Helvetica;fontSize=11;fontColor=default;labelBackgroundColor=default;" parent="F7fUJA4CXwOD2tqX9iZF-312" vertex="1" connectable="0">
          <mxGeometry x="-0.3835" relative="1" as="geometry">
            <mxPoint as="offset" />
          </mxGeometry>
        </mxCell>
        <mxCell id="F7fUJA4CXwOD2tqX9iZF-314" style="edgeStyle=none;shape=connector;rounded=0;orthogonalLoop=1;jettySize=auto;html=1;strokeColor=default;align=center;verticalAlign=middle;fontFamily=Helvetica;fontSize=11;fontColor=default;labelBackgroundColor=default;endArrow=classic;" parent="WIyWlLk6GJQsqaUBKTNV-1" source="F7fUJA4CXwOD2tqX9iZF-292" target="F7fUJA4CXwOD2tqX9iZF-313" edge="1">
          <mxGeometry relative="1" as="geometry" />
        </mxCell>
        <mxCell id="F7fUJA4CXwOD2tqX9iZF-292" value="PlayerCollision" style="whiteSpace=wrap;html=1;rounded=1;glass=0;strokeWidth=1;shadow=0;fontSize=9;" parent="WIyWlLk6GJQsqaUBKTNV-1" vertex="1">
          <mxGeometry x="-2243" y="1083.06" width="110" height="30" as="geometry" />
        </mxCell>
        <mxCell id="F7fUJA4CXwOD2tqX9iZF-296" value="" style="verticalLabelPosition=bottom;verticalAlign=top;html=1;shape=card;whiteSpace=wrap;size=20;arcSize=12;fontStyle=1;strokeWidth=2;rounded=1;shadow=0;" parent="WIyWlLk6GJQsqaUBKTNV-1" vertex="1">
          <mxGeometry x="-1062" y="304.25" width="167" height="150" as="geometry" />
        </mxCell>
        <mxCell id="F7fUJA4CXwOD2tqX9iZF-297" value="StartMenu Canvas" style="text;html=1;align=center;verticalAlign=middle;whiteSpace=wrap;rounded=0;fontStyle=1" parent="WIyWlLk6GJQsqaUBKTNV-1" vertex="1">
          <mxGeometry x="-1062" y="304.25" width="137" height="45" as="geometry" />
        </mxCell>
        <mxCell id="F7fUJA4CXwOD2tqX9iZF-332" style="edgeStyle=none;shape=connector;rounded=0;orthogonalLoop=1;jettySize=auto;html=1;strokeColor=default;align=center;verticalAlign=middle;fontFamily=Helvetica;fontSize=11;fontColor=default;labelBackgroundColor=default;endArrow=classic;exitX=0;exitY=0.25;exitDx=0;exitDy=0;entryX=1;entryY=0.5;entryDx=0;entryDy=0;entryPerimeter=0;" parent="WIyWlLk6GJQsqaUBKTNV-1" source="F7fUJA4CXwOD2tqX9iZF-298" target="F7fUJA4CXwOD2tqX9iZF-341" edge="1">
          <mxGeometry relative="1" as="geometry" />
        </mxCell>
        <mxCell id="_xtLVecPUBUWVg5fJALY-265" value="clicked" style="edgeLabel;html=1;align=center;verticalAlign=middle;resizable=0;points=[];fontFamily=Helvetica;fontSize=11;fontColor=default;labelBackgroundColor=default;" parent="F7fUJA4CXwOD2tqX9iZF-332" vertex="1" connectable="0">
          <mxGeometry x="-0.0966" relative="1" as="geometry">
            <mxPoint as="offset" />
          </mxGeometry>
        </mxCell>
        <mxCell id="F7fUJA4CXwOD2tqX9iZF-298" value="Quit to Desktop Button" style="shape=hexagon;perimeter=hexagonPerimeter2;whiteSpace=wrap;html=1;fixedSize=1;fontFamily=Helvetica;fontSize=11;labelBackgroundColor=none;fillColor=#ffe6cc;strokeColor=#d79b00;fontStyle=1" parent="WIyWlLk6GJQsqaUBKTNV-1" vertex="1">
          <mxGeometry x="-1052" y="408.25" width="147" height="30" as="geometry" />
        </mxCell>
        <mxCell id="F7fUJA4CXwOD2tqX9iZF-333" style="edgeStyle=none;shape=connector;rounded=0;orthogonalLoop=1;jettySize=auto;html=1;strokeColor=default;align=center;verticalAlign=middle;fontFamily=Helvetica;fontSize=11;fontColor=default;labelBackgroundColor=default;endArrow=classic;exitX=0;exitY=0.5;exitDx=0;exitDy=0;entryX=1;entryY=0.5;entryDx=0;entryDy=0;" parent="WIyWlLk6GJQsqaUBKTNV-1" source="F7fUJA4CXwOD2tqX9iZF-299" target="F7fUJA4CXwOD2tqX9iZF-331" edge="1">
          <mxGeometry relative="1" as="geometry" />
        </mxCell>
        <mxCell id="_xtLVecPUBUWVg5fJALY-264" value="&lt;div&gt;clicked&lt;/div&gt;" style="edgeLabel;html=1;align=center;verticalAlign=middle;resizable=0;points=[];fontFamily=Helvetica;fontSize=11;fontColor=default;labelBackgroundColor=default;" parent="F7fUJA4CXwOD2tqX9iZF-333" vertex="1" connectable="0">
          <mxGeometry x="-0.1771" y="3" relative="1" as="geometry">
            <mxPoint as="offset" />
          </mxGeometry>
        </mxCell>
        <mxCell id="F7fUJA4CXwOD2tqX9iZF-299" value="Start Button" style="shape=hexagon;perimeter=hexagonPerimeter2;whiteSpace=wrap;html=1;fixedSize=1;fontFamily=Helvetica;fontSize=11;labelBackgroundColor=none;fillColor=#ffe6cc;strokeColor=#d79b00;fontStyle=1" parent="WIyWlLk6GJQsqaUBKTNV-1" vertex="1">
          <mxGeometry x="-1052" y="358.25" width="147" height="30" as="geometry" />
        </mxCell>
        <mxCell id="F7fUJA4CXwOD2tqX9iZF-301" value="SceneLoader - ScriptedObject" style="text;html=1;align=center;verticalAlign=middle;whiteSpace=wrap;rounded=0;fontStyle=1" parent="WIyWlLk6GJQsqaUBKTNV-1" vertex="1">
          <mxGeometry x="-1786.5" y="224" width="210" height="36" as="geometry" />
        </mxCell>
        <mxCell id="F7fUJA4CXwOD2tqX9iZF-315" style="edgeStyle=none;shape=connector;rounded=0;orthogonalLoop=1;jettySize=auto;html=1;strokeColor=default;align=center;verticalAlign=middle;fontFamily=Helvetica;fontSize=11;fontColor=default;labelBackgroundColor=default;endArrow=classic;" parent="WIyWlLk6GJQsqaUBKTNV-1" source="F7fUJA4CXwOD2tqX9iZF-311" target="_xtLVecPUBUWVg5fJALY-79" edge="1">
          <mxGeometry relative="1" as="geometry">
            <mxPoint x="1314.5" y="135.31" as="targetPoint" />
          </mxGeometry>
        </mxCell>
        <mxCell id="F7fUJA4CXwOD2tqX9iZF-311" value="reset timer" style="whiteSpace=wrap;html=1;rounded=1;glass=0;strokeWidth=1;shadow=0;fontSize=9;" parent="WIyWlLk6GJQsqaUBKTNV-1" vertex="1">
          <mxGeometry x="-2009.5" y="1109.06" width="110" height="30" as="geometry" />
        </mxCell>
        <mxCell id="F7fUJA4CXwOD2tqX9iZF-318" style="edgeStyle=none;shape=connector;rounded=0;orthogonalLoop=1;jettySize=auto;html=1;strokeColor=default;align=center;verticalAlign=middle;fontFamily=Helvetica;fontSize=11;fontColor=default;labelBackgroundColor=default;endArrow=classic;" parent="WIyWlLk6GJQsqaUBKTNV-1" source="F7fUJA4CXwOD2tqX9iZF-313" target="F7fUJA4CXwOD2tqX9iZF-317" edge="1">
          <mxGeometry relative="1" as="geometry" />
        </mxCell>
        <mxCell id="F7fUJA4CXwOD2tqX9iZF-319" value="no" style="edgeLabel;html=1;align=center;verticalAlign=middle;resizable=0;points=[];fontFamily=Helvetica;fontSize=11;fontColor=default;labelBackgroundColor=default;" parent="F7fUJA4CXwOD2tqX9iZF-318" vertex="1" connectable="0">
          <mxGeometry x="-0.3494" y="1" relative="1" as="geometry">
            <mxPoint as="offset" />
          </mxGeometry>
        </mxCell>
        <mxCell id="F7fUJA4CXwOD2tqX9iZF-313" value="timer expired?" style="rhombus;whiteSpace=wrap;html=1;fontSize=9;rounded=1;glass=0;strokeWidth=1;shadow=0;spacingLeft=4;spacingRight=4;" parent="WIyWlLk6GJQsqaUBKTNV-1" vertex="1">
          <mxGeometry x="-2107.5" y="1069.06" width="65" height="60" as="geometry" />
        </mxCell>
        <mxCell id="F7fUJA4CXwOD2tqX9iZF-317" value="done" style="ellipse;whiteSpace=wrap;html=1;fontSize=9;rounded=1;glass=0;strokeWidth=1;shadow=0;spacingTop=0;fillColor=#e1d5e7;strokeColor=#9673a6;" parent="WIyWlLk6GJQsqaUBKTNV-1" vertex="1">
          <mxGeometry x="-2009.5" y="1058.06" width="30" height="25" as="geometry" />
        </mxCell>
        <mxCell id="F7fUJA4CXwOD2tqX9iZF-328" value="LoadStart" style="whiteSpace=wrap;html=1;rounded=1;glass=0;strokeWidth=1;shadow=0;fontSize=9;fillColor=#d5e8d4;strokeColor=#82b366;" parent="WIyWlLk6GJQsqaUBKTNV-1" vertex="1">
          <mxGeometry x="-1771.25" y="276.05999999999995" width="110" height="30" as="geometry" />
        </mxCell>
        <mxCell id="F7fUJA4CXwOD2tqX9iZF-334" style="edgeStyle=none;shape=connector;rounded=0;orthogonalLoop=1;jettySize=auto;html=1;strokeColor=default;align=center;verticalAlign=middle;fontFamily=Helvetica;fontSize=11;fontColor=default;labelBackgroundColor=default;endArrow=classic;" parent="WIyWlLk6GJQsqaUBKTNV-1" source="F7fUJA4CXwOD2tqX9iZF-331" target="F7fUJA4CXwOD2tqX9iZF-26" edge="1">
          <mxGeometry relative="1" as="geometry" />
        </mxCell>
        <mxCell id="F7fUJA4CXwOD2tqX9iZF-331" value="LoadLevel" style="whiteSpace=wrap;html=1;rounded=1;glass=0;strokeWidth=1;shadow=0;fontSize=9;fillColor=#d5e8d4;strokeColor=#82b366;" parent="WIyWlLk6GJQsqaUBKTNV-1" vertex="1">
          <mxGeometry x="-1266.5" y="349" width="110" height="30" as="geometry" />
        </mxCell>
        <mxCell id="F7fUJA4CXwOD2tqX9iZF-338" style="edgeStyle=none;shape=connector;rounded=0;orthogonalLoop=1;jettySize=auto;html=1;strokeColor=default;align=center;verticalAlign=middle;fontFamily=Helvetica;fontSize=11;fontColor=default;labelBackgroundColor=default;endArrow=classic;" parent="WIyWlLk6GJQsqaUBKTNV-1" source="F7fUJA4CXwOD2tqX9iZF-335" target="F7fUJA4CXwOD2tqX9iZF-336" edge="1">
          <mxGeometry relative="1" as="geometry" />
        </mxCell>
        <mxCell id="F7fUJA4CXwOD2tqX9iZF-335" value="UI InputMap set active" style="rounded=1;whiteSpace=wrap;html=1;fontSize=12;glass=0;strokeWidth=1;shadow=0;" parent="WIyWlLk6GJQsqaUBKTNV-1" vertex="1">
          <mxGeometry x="-1635.75" y="276.05999999999995" width="130" height="30" as="geometry" />
        </mxCell>
        <mxCell id="F7fUJA4CXwOD2tqX9iZF-339" style="edgeStyle=none;shape=connector;rounded=0;orthogonalLoop=1;jettySize=auto;html=1;strokeColor=default;align=center;verticalAlign=middle;fontFamily=Helvetica;fontSize=11;fontColor=default;labelBackgroundColor=default;endArrow=classic;" parent="WIyWlLk6GJQsqaUBKTNV-1" source="F7fUJA4CXwOD2tqX9iZF-336" target="F7fUJA4CXwOD2tqX9iZF-340" edge="1">
          <mxGeometry relative="1" as="geometry">
            <mxPoint x="-1326.25" y="584.06" as="targetPoint" />
          </mxGeometry>
        </mxCell>
        <mxCell id="F7fUJA4CXwOD2tqX9iZF-336" value="Cursor locked &amp;amp; visible" style="rounded=1;whiteSpace=wrap;html=1;fontSize=12;glass=0;strokeWidth=1;shadow=0;" parent="WIyWlLk6GJQsqaUBKTNV-1" vertex="1">
          <mxGeometry x="-1488.75" y="276.05999999999995" width="130" height="30" as="geometry" />
        </mxCell>
        <mxCell id="F7fUJA4CXwOD2tqX9iZF-337" style="edgeStyle=none;shape=connector;rounded=0;orthogonalLoop=1;jettySize=auto;html=1;strokeColor=default;align=center;verticalAlign=middle;fontFamily=Helvetica;fontSize=11;fontColor=default;labelBackgroundColor=default;endArrow=classic;" parent="WIyWlLk6GJQsqaUBKTNV-1" source="F7fUJA4CXwOD2tqX9iZF-328" target="F7fUJA4CXwOD2tqX9iZF-335" edge="1">
          <mxGeometry relative="1" as="geometry" />
        </mxCell>
        <mxCell id="F7fUJA4CXwOD2tqX9iZF-346" style="edgeStyle=none;shape=connector;rounded=0;orthogonalLoop=1;jettySize=auto;html=1;strokeColor=default;align=center;verticalAlign=middle;fontFamily=Helvetica;fontSize=11;fontColor=default;labelBackgroundColor=default;endArrow=classic;" parent="WIyWlLk6GJQsqaUBKTNV-1" source="F7fUJA4CXwOD2tqX9iZF-340" target="F7fUJA4CXwOD2tqX9iZF-345" edge="1">
          <mxGeometry relative="1" as="geometry" />
        </mxCell>
        <mxCell id="F7fUJA4CXwOD2tqX9iZF-340" value="Loads &lt;b&gt;Start Scene&lt;/b&gt;" style="rounded=1;whiteSpace=wrap;html=1;fontSize=12;glass=0;strokeWidth=1;shadow=0;" parent="WIyWlLk6GJQsqaUBKTNV-1" vertex="1">
          <mxGeometry x="-1339.75" y="278.43000000000006" width="110" height="25.25" as="geometry" />
        </mxCell>
        <mxCell id="F7fUJA4CXwOD2tqX9iZF-342" style="edgeStyle=none;shape=connector;rounded=0;orthogonalLoop=1;jettySize=auto;html=1;strokeColor=default;align=center;verticalAlign=middle;fontFamily=Helvetica;fontSize=11;fontColor=default;labelBackgroundColor=default;endArrow=classic;" parent="WIyWlLk6GJQsqaUBKTNV-1" source="F7fUJA4CXwOD2tqX9iZF-341" target="F7fUJA4CXwOD2tqX9iZF-9" edge="1">
          <mxGeometry relative="1" as="geometry" />
        </mxCell>
        <mxCell id="F7fUJA4CXwOD2tqX9iZF-341" value="QuitGame" style="whiteSpace=wrap;html=1;rounded=1;glass=0;strokeWidth=1;shadow=0;fontSize=9;fillColor=#d5e8d4;strokeColor=#82b366;" parent="WIyWlLk6GJQsqaUBKTNV-1" vertex="1">
          <mxGeometry x="-1266.5" y="406" width="110" height="30" as="geometry" />
        </mxCell>
        <mxCell id="F7fUJA4CXwOD2tqX9iZF-343" value="done" style="ellipse;whiteSpace=wrap;html=1;fontSize=9;rounded=1;glass=0;strokeWidth=1;shadow=0;spacingTop=0;fillColor=#e1d5e7;strokeColor=#9673a6;" parent="WIyWlLk6GJQsqaUBKTNV-1" vertex="1">
          <mxGeometry x="-1766.5" y="353.5" width="30" height="25" as="geometry" />
        </mxCell>
        <mxCell id="F7fUJA4CXwOD2tqX9iZF-345" value="done" style="ellipse;whiteSpace=wrap;html=1;fontSize=9;rounded=1;glass=0;strokeWidth=1;shadow=0;spacingTop=0;fillColor=#e1d5e7;strokeColor=#9673a6;" parent="WIyWlLk6GJQsqaUBKTNV-1" vertex="1">
          <mxGeometry x="-1204.75" y="278.43000000000006" width="30" height="25" as="geometry" />
        </mxCell>
        <mxCell id="_xtLVecPUBUWVg5fJALY-9" value="Switch Weapon" style="whiteSpace=wrap;html=1;rounded=1;glass=0;strokeWidth=1;shadow=0;fillColor=#d5e8d4;strokeColor=#82b366;" parent="WIyWlLk6GJQsqaUBKTNV-1" vertex="1">
          <mxGeometry x="-1130" y="626.3193827160494" width="100" height="30" as="geometry" />
        </mxCell>
        <mxCell id="_xtLVecPUBUWVg5fJALY-10" value="" style="shape=connector;rounded=0;orthogonalLoop=1;jettySize=auto;html=1;strokeColor=default;align=center;verticalAlign=middle;fontFamily=Helvetica;fontSize=11;fontColor=default;labelBackgroundColor=default;endArrow=classic;orthogonal=1;exitX=1;exitY=0.5;exitDx=0;exitDy=0;" parent="WIyWlLk6GJQsqaUBKTNV-1" source="_xtLVecPUBUWVg5fJALY-11" target="_xtLVecPUBUWVg5fJALY-33" edge="1">
          <mxGeometry relative="1" as="geometry" />
        </mxCell>
        <mxCell id="_xtLVecPUBUWVg5fJALY-11" value="Reload" style="whiteSpace=wrap;html=1;rounded=1;glass=0;strokeWidth=1;shadow=0;fillColor=#d5e8d4;strokeColor=#82b366;" parent="WIyWlLk6GJQsqaUBKTNV-1" vertex="1">
          <mxGeometry x="-1136.5" y="737.573086419753" width="100" height="30" as="geometry" />
        </mxCell>
        <mxCell id="_xtLVecPUBUWVg5fJALY-12" value="" style="shape=connector;rounded=0;orthogonalLoop=1;jettySize=auto;html=1;strokeColor=default;align=center;verticalAlign=middle;fontFamily=Helvetica;fontSize=11;fontColor=default;labelBackgroundColor=default;endArrow=classic;orthogonal=1;" parent="WIyWlLk6GJQsqaUBKTNV-1" source="_xtLVecPUBUWVg5fJALY-13" target="_xtLVecPUBUWVg5fJALY-23" edge="1">
          <mxGeometry relative="1" as="geometry" />
        </mxCell>
        <mxCell id="_xtLVecPUBUWVg5fJALY-13" value="Shoot" style="whiteSpace=wrap;html=1;rounded=1;glass=0;strokeWidth=1;shadow=0;fillColor=#d5e8d4;strokeColor=#82b366;" parent="WIyWlLk6GJQsqaUBKTNV-1" vertex="1">
          <mxGeometry x="-1136.5" y="867.56" width="100" height="30" as="geometry" />
        </mxCell>
        <mxCell id="_xtLVecPUBUWVg5fJALY-14" style="shape=connector;rounded=0;orthogonalLoop=1;jettySize=auto;html=1;strokeColor=default;align=center;verticalAlign=middle;fontFamily=Helvetica;fontSize=11;fontColor=default;labelBackgroundColor=default;endArrow=classic;orthogonal=1;" parent="WIyWlLk6GJQsqaUBKTNV-1" source="_xtLVecPUBUWVg5fJALY-15" target="_xtLVecPUBUWVg5fJALY-67" edge="1">
          <mxGeometry relative="1" as="geometry" />
        </mxCell>
        <mxCell id="_xtLVecPUBUWVg5fJALY-15" value="Throw Grenade" style="whiteSpace=wrap;html=1;rounded=1;glass=0;strokeWidth=1;shadow=0;fillColor=#d5e8d4;strokeColor=#82b366;" parent="WIyWlLk6GJQsqaUBKTNV-1" vertex="1">
          <mxGeometry x="-1136.5" y="991.06" width="100" height="26" as="geometry" />
        </mxCell>
        <mxCell id="_xtLVecPUBUWVg5fJALY-16" value="" style="shape=connector;rounded=0;orthogonalLoop=1;jettySize=auto;html=1;strokeColor=default;align=center;verticalAlign=middle;fontFamily=Helvetica;fontSize=11;fontColor=default;labelBackgroundColor=default;endArrow=classic;orthogonal=1;" parent="WIyWlLk6GJQsqaUBKTNV-1" source="_xtLVecPUBUWVg5fJALY-26" target="_xtLVecPUBUWVg5fJALY-20" edge="1">
          <mxGeometry relative="1" as="geometry" />
        </mxCell>
        <mxCell id="_xtLVecPUBUWVg5fJALY-17" value="Yes" style="edgeLabel;html=1;align=center;verticalAlign=middle;resizable=0;points=[];fontFamily=Helvetica;fontSize=11;fontColor=default;labelBackgroundColor=default;" parent="_xtLVecPUBUWVg5fJALY-16" vertex="1" connectable="0">
          <mxGeometry x="-0.3401" y="-3" relative="1" as="geometry">
            <mxPoint as="offset" />
          </mxGeometry>
        </mxCell>
        <mxCell id="_xtLVecPUBUWVg5fJALY-18" style="shape=connector;rounded=0;orthogonalLoop=1;jettySize=auto;html=1;strokeColor=default;align=center;verticalAlign=middle;fontFamily=Helvetica;fontSize=11;fontColor=default;labelBackgroundColor=default;endArrow=classic;orthogonal=1;edgeStyle=orthogonalEdgeStyle;curved=1;" parent="WIyWlLk6GJQsqaUBKTNV-1" source="_xtLVecPUBUWVg5fJALY-64" target="_xtLVecPUBUWVg5fJALY-73" edge="1">
          <mxGeometry relative="1" as="geometry" />
        </mxCell>
        <mxCell id="_xtLVecPUBUWVg5fJALY-19" value="" style="shape=connector;rounded=0;orthogonalLoop=1;jettySize=auto;html=1;strokeColor=default;align=center;verticalAlign=middle;fontFamily=Helvetica;fontSize=11;fontColor=default;labelBackgroundColor=default;endArrow=classic;orthogonal=1;" parent="WIyWlLk6GJQsqaUBKTNV-1" source="_xtLVecPUBUWVg5fJALY-20" target="_xtLVecPUBUWVg5fJALY-64" edge="1">
          <mxGeometry relative="1" as="geometry" />
        </mxCell>
        <mxCell id="_xtLVecPUBUWVg5fJALY-20" value="invoke iWeapon.shoot" style="whiteSpace=wrap;html=1;rounded=1;glass=0;strokeWidth=1;shadow=0;fontSize=9;" parent="WIyWlLk6GJQsqaUBKTNV-1" vertex="1">
          <mxGeometry x="-783" y="872.06" width="110" height="30" as="geometry" />
        </mxCell>
        <mxCell id="_xtLVecPUBUWVg5fJALY-21" value="" style="shape=connector;rounded=0;orthogonalLoop=1;jettySize=auto;html=1;strokeColor=default;align=center;verticalAlign=middle;fontFamily=Helvetica;fontSize=11;fontColor=default;labelBackgroundColor=default;endArrow=classic;orthogonal=1;" parent="WIyWlLk6GJQsqaUBKTNV-1" source="_xtLVecPUBUWVg5fJALY-23" target="_xtLVecPUBUWVg5fJALY-26" edge="1">
          <mxGeometry relative="1" as="geometry" />
        </mxCell>
        <mxCell id="_xtLVecPUBUWVg5fJALY-22" value="yes" style="edgeLabel;html=1;align=center;verticalAlign=middle;resizable=0;points=[];fontFamily=Helvetica;fontSize=11;fontColor=default;labelBackgroundColor=default;" parent="_xtLVecPUBUWVg5fJALY-21" vertex="1" connectable="0">
          <mxGeometry x="-0.3484" relative="1" as="geometry">
            <mxPoint as="offset" />
          </mxGeometry>
        </mxCell>
        <mxCell id="_xtLVecPUBUWVg5fJALY-23" value="&lt;div&gt;is a&amp;nbsp;&lt;/div&gt;&lt;div&gt;Weapon active&lt;/div&gt;" style="rhombus;whiteSpace=wrap;html=1;rounded=1;glass=0;strokeWidth=1;shadow=0;spacingTop=0;" parent="WIyWlLk6GJQsqaUBKTNV-1" vertex="1">
          <mxGeometry x="-1008.5" y="850.06" width="79" height="66" as="geometry" />
        </mxCell>
        <mxCell id="_xtLVecPUBUWVg5fJALY-24" value="" style="shape=connector;rounded=0;orthogonalLoop=1;jettySize=auto;html=1;strokeColor=default;align=center;verticalAlign=middle;fontFamily=Helvetica;fontSize=11;fontColor=default;labelBackgroundColor=default;endArrow=classic;orthogonal=1;" parent="WIyWlLk6GJQsqaUBKTNV-1" source="_xtLVecPUBUWVg5fJALY-26" target="_xtLVecPUBUWVg5fJALY-11" edge="1">
          <mxGeometry relative="1" as="geometry">
            <mxPoint x="-1861" y="1358.06" as="sourcePoint" />
            <mxPoint x="-2011" y="1398.06" as="targetPoint" />
          </mxGeometry>
        </mxCell>
        <mxCell id="_xtLVecPUBUWVg5fJALY-25" value="no" style="edgeLabel;html=1;align=center;verticalAlign=middle;resizable=0;points=[];fontFamily=Helvetica;fontSize=11;fontColor=default;labelBackgroundColor=default;" parent="_xtLVecPUBUWVg5fJALY-24" vertex="1" connectable="0">
          <mxGeometry x="-0.1033" y="-1" relative="1" as="geometry">
            <mxPoint as="offset" />
          </mxGeometry>
        </mxCell>
        <mxCell id="_xtLVecPUBUWVg5fJALY-26" value="ammo remaining?" style="rhombus;whiteSpace=wrap;html=1;rounded=1;glass=0;strokeWidth=1;shadow=0;spacingTop=0;fontSize=9;" parent="WIyWlLk6GJQsqaUBKTNV-1" vertex="1">
          <mxGeometry x="-895" y="852.06" width="70" height="70" as="geometry" />
        </mxCell>
        <mxCell id="_xtLVecPUBUWVg5fJALY-27" value="" style="shape=connector;rounded=0;orthogonalLoop=1;jettySize=auto;html=1;strokeColor=default;align=center;verticalAlign=middle;fontFamily=Helvetica;fontSize=11;fontColor=default;labelBackgroundColor=default;endArrow=classic;orthogonal=1;" parent="WIyWlLk6GJQsqaUBKTNV-1" source="_xtLVecPUBUWVg5fJALY-29" target="_xtLVecPUBUWVg5fJALY-37" edge="1">
          <mxGeometry relative="1" as="geometry" />
        </mxCell>
        <mxCell id="_xtLVecPUBUWVg5fJALY-28" value="no" style="shape=connector;rounded=0;orthogonalLoop=1;jettySize=auto;html=1;strokeColor=default;align=center;verticalAlign=middle;fontFamily=Helvetica;fontSize=11;fontColor=default;labelBackgroundColor=default;endArrow=classic;orthogonal=1;" parent="WIyWlLk6GJQsqaUBKTNV-1" source="_xtLVecPUBUWVg5fJALY-29" target="_xtLVecPUBUWVg5fJALY-54" edge="1">
          <mxGeometry relative="1" as="geometry">
            <mxPoint as="offset" />
          </mxGeometry>
        </mxCell>
        <mxCell id="_xtLVecPUBUWVg5fJALY-29" value="Any weapon Magazines remaining?" style="rhombus;whiteSpace=wrap;html=1;rounded=1;glass=0;strokeWidth=1;shadow=0;fontSize=9;spacingTop=6;" parent="WIyWlLk6GJQsqaUBKTNV-1" vertex="1">
          <mxGeometry x="-830.5" y="720.31" width="80" height="80" as="geometry" />
        </mxCell>
        <mxCell id="_xtLVecPUBUWVg5fJALY-30" style="shape=connector;rounded=0;orthogonalLoop=1;jettySize=auto;html=1;strokeColor=default;align=center;verticalAlign=middle;fontFamily=Helvetica;fontSize=11;fontColor=default;labelBackgroundColor=default;endArrow=classic;orthogonal=1;" parent="WIyWlLk6GJQsqaUBKTNV-1" source="_xtLVecPUBUWVg5fJALY-33" target="_xtLVecPUBUWVg5fJALY-54" edge="1">
          <mxGeometry relative="1" as="geometry" />
        </mxCell>
        <mxCell id="_xtLVecPUBUWVg5fJALY-32" value="no" style="edgeLabel;html=1;align=center;verticalAlign=middle;resizable=0;points=[];fontFamily=Helvetica;fontSize=11;fontColor=default;labelBackgroundColor=default;" parent="_xtLVecPUBUWVg5fJALY-30" vertex="1" connectable="0">
          <mxGeometry x="-0.2153" y="3" relative="1" as="geometry">
            <mxPoint as="offset" />
          </mxGeometry>
        </mxCell>
        <mxCell id="_xtLVecPUBUWVg5fJALY-33" value="&lt;div&gt;is a&amp;nbsp;&lt;/div&gt;&lt;div&gt;Weapon active&lt;/div&gt;" style="rhombus;whiteSpace=wrap;html=1;rounded=1;glass=0;strokeWidth=1;shadow=0;spacingTop=0;" parent="WIyWlLk6GJQsqaUBKTNV-1" vertex="1">
          <mxGeometry x="-955.5" y="728.29" width="77.5" height="64.03" as="geometry" />
        </mxCell>
        <mxCell id="_xtLVecPUBUWVg5fJALY-34" style="shape=connector;rounded=0;orthogonalLoop=1;jettySize=auto;html=1;strokeColor=default;align=center;verticalAlign=middle;fontFamily=Helvetica;fontSize=11;fontColor=default;labelBackgroundColor=default;endArrow=classic;orthogonal=1;" parent="WIyWlLk6GJQsqaUBKTNV-1" source="_xtLVecPUBUWVg5fJALY-33" target="_xtLVecPUBUWVg5fJALY-29" edge="1">
          <mxGeometry relative="1" as="geometry">
            <mxPoint x="-1707.5" y="1438.28" as="targetPoint" />
          </mxGeometry>
        </mxCell>
        <mxCell id="_xtLVecPUBUWVg5fJALY-35" value="yes" style="edgeLabel;html=1;align=center;verticalAlign=middle;resizable=0;points=[];fontFamily=Helvetica;fontSize=11;fontColor=default;labelBackgroundColor=default;" parent="_xtLVecPUBUWVg5fJALY-34" vertex="1" connectable="0">
          <mxGeometry x="0.4582" relative="1" as="geometry">
            <mxPoint x="-1" y="-9" as="offset" />
          </mxGeometry>
        </mxCell>
        <mxCell id="_xtLVecPUBUWVg5fJALY-36" value="" style="shape=connector;rounded=0;orthogonalLoop=1;jettySize=auto;html=1;strokeColor=default;align=center;verticalAlign=middle;fontFamily=Helvetica;fontSize=11;fontColor=default;labelBackgroundColor=default;endArrow=classic;orthogonal=1;" parent="WIyWlLk6GJQsqaUBKTNV-1" source="_xtLVecPUBUWVg5fJALY-37" target="_xtLVecPUBUWVg5fJALY-39" edge="1">
          <mxGeometry relative="1" as="geometry" />
        </mxCell>
        <mxCell id="_xtLVecPUBUWVg5fJALY-37" value="set Weapon ammo to full" style="whiteSpace=wrap;html=1;fontSize=9;rounded=1;glass=0;strokeWidth=1;shadow=0;spacingTop=0;" parent="WIyWlLk6GJQsqaUBKTNV-1" vertex="1">
          <mxGeometry x="-730" y="748.31" width="120" height="24" as="geometry" />
        </mxCell>
        <mxCell id="_xtLVecPUBUWVg5fJALY-38" value="" style="shape=connector;rounded=0;orthogonalLoop=1;jettySize=auto;html=1;strokeColor=default;align=center;verticalAlign=middle;fontFamily=Helvetica;fontSize=11;fontColor=default;labelBackgroundColor=default;endArrow=classic;orthogonal=1;edgeStyle=orthogonalEdgeStyle;curved=1;" parent="WIyWlLk6GJQsqaUBKTNV-1" source="_xtLVecPUBUWVg5fJALY-39" target="_xtLVecPUBUWVg5fJALY-73" edge="1">
          <mxGeometry relative="1" as="geometry" />
        </mxCell>
        <mxCell id="_xtLVecPUBUWVg5fJALY-39" value="reduce weapon magazines by 1" style="whiteSpace=wrap;html=1;fontSize=9;rounded=1;glass=0;strokeWidth=1;shadow=0;spacingTop=0;" parent="WIyWlLk6GJQsqaUBKTNV-1" vertex="1">
          <mxGeometry x="-593" y="745.31" width="80" height="30" as="geometry" />
        </mxCell>
        <mxCell id="_xtLVecPUBUWVg5fJALY-40" value="" style="shape=connector;rounded=0;orthogonalLoop=1;jettySize=auto;html=1;strokeColor=default;align=center;verticalAlign=middle;fontFamily=Helvetica;fontSize=11;fontColor=default;labelBackgroundColor=default;endArrow=classic;orthogonal=1;" parent="WIyWlLk6GJQsqaUBKTNV-1" source="_xtLVecPUBUWVg5fJALY-42" target="_xtLVecPUBUWVg5fJALY-53" edge="1">
          <mxGeometry relative="1" as="geometry">
            <mxPoint x="-1496" y="1398.6599999999999" as="targetPoint" />
          </mxGeometry>
        </mxCell>
        <mxCell id="_xtLVecPUBUWVg5fJALY-41" value="yes" style="edgeLabel;html=1;align=center;verticalAlign=middle;resizable=0;points=[];fontFamily=Helvetica;fontSize=11;fontColor=default;labelBackgroundColor=default;" parent="_xtLVecPUBUWVg5fJALY-40" vertex="1" connectable="0">
          <mxGeometry x="-0.4027" relative="1" as="geometry">
            <mxPoint as="offset" />
          </mxGeometry>
        </mxCell>
        <mxCell id="_xtLVecPUBUWVg5fJALY-42" value="&lt;div&gt;is a&amp;nbsp;&lt;/div&gt;&lt;div&gt;Weapon active?&lt;/div&gt;" style="rhombus;whiteSpace=wrap;html=1;rounded=1;glass=0;strokeWidth=1;shadow=0;spacingTop=0;fontSize=9;spacingLeft=7;spacingRight=6;" parent="WIyWlLk6GJQsqaUBKTNV-1" vertex="1">
          <mxGeometry x="-865" y="601.3199999999999" width="70" height="70.94" as="geometry" />
        </mxCell>
        <mxCell id="_xtLVecPUBUWVg5fJALY-43" value="do we have more than one Weapon?" style="rhombus;whiteSpace=wrap;html=1;rounded=1;glass=0;strokeWidth=1;shadow=0;spacingTop=0;fontSize=8;verticalAlign=middle;spacingRight=9;spacingLeft=9;" parent="WIyWlLk6GJQsqaUBKTNV-1" vertex="1">
          <mxGeometry x="-997" y="601.3193827160494" width="80" height="80" as="geometry" />
        </mxCell>
        <mxCell id="_xtLVecPUBUWVg5fJALY-44" style="shape=connector;rounded=0;orthogonalLoop=1;jettySize=auto;html=1;strokeColor=default;align=center;verticalAlign=middle;fontFamily=Helvetica;fontSize=11;fontColor=default;labelBackgroundColor=default;endArrow=classic;orthogonal=1;" parent="WIyWlLk6GJQsqaUBKTNV-1" source="_xtLVecPUBUWVg5fJALY-9" target="_xtLVecPUBUWVg5fJALY-43" edge="1">
          <mxGeometry relative="1" as="geometry" />
        </mxCell>
        <mxCell id="_xtLVecPUBUWVg5fJALY-45" style="shape=connector;rounded=0;orthogonalLoop=1;jettySize=auto;html=1;strokeColor=default;align=center;verticalAlign=middle;fontFamily=Helvetica;fontSize=11;fontColor=default;labelBackgroundColor=default;endArrow=classic;orthogonal=1;" parent="WIyWlLk6GJQsqaUBKTNV-1" source="_xtLVecPUBUWVg5fJALY-43" target="_xtLVecPUBUWVg5fJALY-42" edge="1">
          <mxGeometry relative="1" as="geometry">
            <mxPoint x="-1453" y="1228.6599999999999" as="targetPoint" />
          </mxGeometry>
        </mxCell>
        <mxCell id="_xtLVecPUBUWVg5fJALY-46" value="yes" style="edgeLabel;html=1;align=center;verticalAlign=middle;resizable=0;points=[];fontFamily=Helvetica;fontSize=11;fontColor=default;labelBackgroundColor=default;" parent="_xtLVecPUBUWVg5fJALY-45" vertex="1" connectable="0">
          <mxGeometry x="-0.0635" y="2" relative="1" as="geometry">
            <mxPoint as="offset" />
          </mxGeometry>
        </mxCell>
        <mxCell id="_xtLVecPUBUWVg5fJALY-49" style="shape=connector;rounded=0;orthogonalLoop=1;jettySize=auto;html=1;strokeColor=default;align=center;verticalAlign=middle;fontFamily=Helvetica;fontSize=11;fontColor=default;labelBackgroundColor=default;endArrow=classic;orthogonal=1;edgeStyle=orthogonalEdgeStyle;curved=1;" parent="WIyWlLk6GJQsqaUBKTNV-1" source="_xtLVecPUBUWVg5fJALY-51" target="_xtLVecPUBUWVg5fJALY-73" edge="1">
          <mxGeometry relative="1" as="geometry" />
        </mxCell>
        <mxCell id="_xtLVecPUBUWVg5fJALY-50" value="yes" style="edgeLabel;html=1;align=center;verticalAlign=middle;resizable=0;points=[];fontFamily=Helvetica;fontSize=11;fontColor=default;labelBackgroundColor=default;" parent="_xtLVecPUBUWVg5fJALY-49" vertex="1" connectable="0">
          <mxGeometry x="-0.0821" y="1" relative="1" as="geometry">
            <mxPoint x="-77" y="-70" as="offset" />
          </mxGeometry>
        </mxCell>
        <mxCell id="_xtLVecPUBUWVg5fJALY-87" style="rounded=0;orthogonalLoop=1;jettySize=auto;html=1;exitX=0;exitY=1;exitDx=0;exitDy=0;" parent="WIyWlLk6GJQsqaUBKTNV-1" source="_xtLVecPUBUWVg5fJALY-51" target="_xtLVecPUBUWVg5fJALY-11" edge="1">
          <mxGeometry relative="1" as="geometry">
            <Array as="points">
              <mxPoint x="-623" y="670.06" />
              <mxPoint x="-1033" y="700.06" />
            </Array>
          </mxGeometry>
        </mxCell>
        <mxCell id="_xtLVecPUBUWVg5fJALY-88" value="no" style="edgeLabel;html=1;align=center;verticalAlign=middle;resizable=0;points=[];" parent="_xtLVecPUBUWVg5fJALY-87" vertex="1" connectable="0">
          <mxGeometry x="-0.9374" y="1" relative="1" as="geometry">
            <mxPoint as="offset" />
          </mxGeometry>
        </mxCell>
        <mxCell id="_xtLVecPUBUWVg5fJALY-51" value="&lt;div&gt;ammo&amp;nbsp;&lt;/div&gt;&lt;div&gt;remaining in active&amp;nbsp;&lt;/div&gt;&lt;div&gt;Weapon?&lt;/div&gt;" style="rhombus;whiteSpace=wrap;html=1;rounded=1;glass=0;strokeWidth=1;shadow=0;spacingTop=-2;fontSize=9;" parent="WIyWlLk6GJQsqaUBKTNV-1" vertex="1">
          <mxGeometry x="-593" y="597.3192592592593" width="73" height="78.94" as="geometry" />
        </mxCell>
        <mxCell id="_xtLVecPUBUWVg5fJALY-52" style="shape=connector;rounded=0;orthogonalLoop=1;jettySize=auto;html=1;strokeColor=default;align=center;verticalAlign=middle;fontFamily=Helvetica;fontSize=11;fontColor=default;labelBackgroundColor=default;endArrow=classic;orthogonal=1;" parent="WIyWlLk6GJQsqaUBKTNV-1" source="_xtLVecPUBUWVg5fJALY-53" target="_xtLVecPUBUWVg5fJALY-51" edge="1">
          <mxGeometry relative="1" as="geometry" />
        </mxCell>
        <mxCell id="_xtLVecPUBUWVg5fJALY-53" value="toggle all carried weapon active/inactive" style="whiteSpace=wrap;html=1;fontSize=9;rounded=1;glass=0;strokeWidth=1;shadow=0;spacingTop=0;" parent="WIyWlLk6GJQsqaUBKTNV-1" vertex="1">
          <mxGeometry x="-755" y="614.3188888888888" width="100" height="42" as="geometry" />
        </mxCell>
        <mxCell id="_xtLVecPUBUWVg5fJALY-54" value="done" style="ellipse;whiteSpace=wrap;html=1;fontSize=9;rounded=1;glass=0;strokeWidth=1;shadow=0;spacingTop=0;fillColor=#e1d5e7;strokeColor=#9673a6;" parent="WIyWlLk6GJQsqaUBKTNV-1" vertex="1">
          <mxGeometry x="-867" y="803.31" width="30" height="25" as="geometry" />
        </mxCell>
        <mxCell id="_xtLVecPUBUWVg5fJALY-55" value="done" style="ellipse;whiteSpace=wrap;html=1;fontSize=9;rounded=1;glass=0;strokeWidth=1;shadow=0;spacingTop=0;fillColor=#e1d5e7;strokeColor=#9673a6;" parent="WIyWlLk6GJQsqaUBKTNV-1" vertex="1">
          <mxGeometry x="-910" y="567.605" width="30" height="25" as="geometry" />
        </mxCell>
        <mxCell id="_xtLVecPUBUWVg5fJALY-56" value="done" style="ellipse;whiteSpace=wrap;html=1;fontSize=9;rounded=1;glass=0;strokeWidth=1;shadow=0;spacingTop=0;fillColor=#e1d5e7;strokeColor=#9673a6;" parent="WIyWlLk6GJQsqaUBKTNV-1" vertex="1">
          <mxGeometry x="-917" y="916.06" width="30" height="25" as="geometry" />
        </mxCell>
        <mxCell id="_xtLVecPUBUWVg5fJALY-57" style="shape=connector;rounded=0;orthogonalLoop=1;jettySize=auto;html=1;strokeColor=default;align=center;verticalAlign=middle;fontFamily=Helvetica;fontSize=11;fontColor=default;labelBackgroundColor=default;endArrow=classic;orthogonal=1;" parent="WIyWlLk6GJQsqaUBKTNV-1" source="_xtLVecPUBUWVg5fJALY-23" target="_xtLVecPUBUWVg5fJALY-56" edge="1">
          <mxGeometry relative="1" as="geometry">
            <mxPoint x="-1881" y="1285.17" as="sourcePoint" />
            <mxPoint x="-1933" y="1289.17" as="targetPoint" />
          </mxGeometry>
        </mxCell>
        <mxCell id="_xtLVecPUBUWVg5fJALY-58" value="no" style="edgeLabel;html=1;align=center;verticalAlign=middle;resizable=0;points=[];fontFamily=Helvetica;fontSize=11;fontColor=default;labelBackgroundColor=default;" parent="_xtLVecPUBUWVg5fJALY-57" vertex="1" connectable="0">
          <mxGeometry x="-0.3405" y="-1" relative="1" as="geometry">
            <mxPoint y="-1" as="offset" />
          </mxGeometry>
        </mxCell>
        <mxCell id="_xtLVecPUBUWVg5fJALY-59" value="" style="shape=connector;rounded=0;orthogonalLoop=1;jettySize=auto;html=1;strokeColor=default;align=center;verticalAlign=middle;fontFamily=Helvetica;fontSize=11;fontColor=default;labelBackgroundColor=default;endArrow=classic;orthogonal=1;" parent="WIyWlLk6GJQsqaUBKTNV-1" source="_xtLVecPUBUWVg5fJALY-42" target="_xtLVecPUBUWVg5fJALY-55" edge="1">
          <mxGeometry relative="1" as="geometry">
            <mxPoint x="-1416" y="1258.7199999999998" as="sourcePoint" />
            <mxPoint x="-1416" y="1301.7199999999998" as="targetPoint" />
          </mxGeometry>
        </mxCell>
        <mxCell id="_xtLVecPUBUWVg5fJALY-60" value="no" style="edgeLabel;html=1;align=center;verticalAlign=middle;resizable=0;points=[];fontFamily=Helvetica;fontSize=11;fontColor=default;labelBackgroundColor=default;" parent="_xtLVecPUBUWVg5fJALY-59" vertex="1" connectable="0">
          <mxGeometry x="-0.4027" relative="1" as="geometry">
            <mxPoint as="offset" />
          </mxGeometry>
        </mxCell>
        <mxCell id="_xtLVecPUBUWVg5fJALY-61" value="" style="shape=connector;rounded=0;orthogonalLoop=1;jettySize=auto;html=1;strokeColor=default;align=center;verticalAlign=middle;fontFamily=Helvetica;fontSize=11;fontColor=default;labelBackgroundColor=default;endArrow=classic;orthogonal=1;" parent="WIyWlLk6GJQsqaUBKTNV-1" source="_xtLVecPUBUWVg5fJALY-43" target="_xtLVecPUBUWVg5fJALY-55" edge="1">
          <mxGeometry relative="1" as="geometry">
            <mxPoint x="-1346" y="1188.6599999999999" as="sourcePoint" />
            <mxPoint x="-1346" y="1231.6599999999999" as="targetPoint" />
          </mxGeometry>
        </mxCell>
        <mxCell id="_xtLVecPUBUWVg5fJALY-62" value="no" style="edgeLabel;html=1;align=center;verticalAlign=middle;resizable=0;points=[];fontFamily=Helvetica;fontSize=11;fontColor=default;labelBackgroundColor=default;" parent="_xtLVecPUBUWVg5fJALY-61" vertex="1" connectable="0">
          <mxGeometry x="-0.4027" relative="1" as="geometry">
            <mxPoint as="offset" />
          </mxGeometry>
        </mxCell>
        <mxCell id="_xtLVecPUBUWVg5fJALY-63" value="Weapons Inventory Controller" style="text;html=1;align=center;verticalAlign=middle;whiteSpace=wrap;rounded=0;fontStyle=1" parent="WIyWlLk6GJQsqaUBKTNV-1" vertex="1">
          <mxGeometry x="-1153" y="533" width="201.5" height="40" as="geometry" />
        </mxCell>
        <mxCell id="_xtLVecPUBUWVg5fJALY-64" value="update remaining ammo" style="whiteSpace=wrap;html=1;rounded=1;glass=0;strokeWidth=1;shadow=0;fontSize=9;" parent="WIyWlLk6GJQsqaUBKTNV-1" vertex="1">
          <mxGeometry x="-653" y="872.06" width="110" height="30" as="geometry" />
        </mxCell>
        <mxCell id="_xtLVecPUBUWVg5fJALY-65" value="no" style="shape=connector;rounded=0;orthogonalLoop=1;jettySize=auto;html=1;strokeColor=default;align=center;verticalAlign=middle;fontFamily=Helvetica;fontSize=11;fontColor=default;labelBackgroundColor=default;endArrow=classic;orthogonal=1;" parent="WIyWlLk6GJQsqaUBKTNV-1" source="_xtLVecPUBUWVg5fJALY-67" target="_xtLVecPUBUWVg5fJALY-68" edge="1">
          <mxGeometry relative="1" as="geometry" />
        </mxCell>
        <mxCell id="_xtLVecPUBUWVg5fJALY-66" value="yes" style="shape=connector;rounded=0;orthogonalLoop=1;jettySize=auto;html=1;strokeColor=default;align=center;verticalAlign=middle;fontFamily=Helvetica;fontSize=11;fontColor=default;labelBackgroundColor=default;endArrow=classic;orthogonal=1;" parent="WIyWlLk6GJQsqaUBKTNV-1" source="_xtLVecPUBUWVg5fJALY-67" target="_xtLVecPUBUWVg5fJALY-70" edge="1">
          <mxGeometry relative="1" as="geometry">
            <mxPoint x="-1925" y="1296.93" as="targetPoint" />
          </mxGeometry>
        </mxCell>
        <mxCell id="_xtLVecPUBUWVg5fJALY-67" value="no we have grenades?" style="rhombus;whiteSpace=wrap;html=1;rounded=1;glass=0;strokeWidth=1;shadow=0;spacingTop=0;fontSize=10;" parent="WIyWlLk6GJQsqaUBKTNV-1" vertex="1">
          <mxGeometry x="-1008.5" y="959.25" width="80" height="80" as="geometry" />
        </mxCell>
        <mxCell id="_xtLVecPUBUWVg5fJALY-68" value="done" style="ellipse;whiteSpace=wrap;html=1;fontSize=9;rounded=1;glass=0;strokeWidth=1;shadow=0;spacingTop=0;fillColor=#e1d5e7;strokeColor=#9673a6;" parent="WIyWlLk6GJQsqaUBKTNV-1" vertex="1">
          <mxGeometry x="-925" y="1038.19" width="30" height="25" as="geometry" />
        </mxCell>
        <mxCell id="_xtLVecPUBUWVg5fJALY-69" value="" style="shape=connector;rounded=0;orthogonalLoop=1;jettySize=auto;html=1;strokeColor=default;align=center;verticalAlign=middle;fontFamily=Helvetica;fontSize=11;fontColor=default;labelBackgroundColor=default;endArrow=classic;orthogonal=1;" parent="WIyWlLk6GJQsqaUBKTNV-1" source="_xtLVecPUBUWVg5fJALY-70" target="_xtLVecPUBUWVg5fJALY-72" edge="1">
          <mxGeometry relative="1" as="geometry" />
        </mxCell>
        <mxCell id="_xtLVecPUBUWVg5fJALY-70" value="invoke iGrenade.throw" style="whiteSpace=wrap;html=1;rounded=1;glass=0;strokeWidth=1;shadow=0;fontSize=9;" parent="WIyWlLk6GJQsqaUBKTNV-1" vertex="1">
          <mxGeometry x="-871.5" y="989.06" width="110" height="30" as="geometry" />
        </mxCell>
        <mxCell id="_xtLVecPUBUWVg5fJALY-71" style="shape=connector;rounded=0;orthogonalLoop=1;jettySize=auto;html=1;strokeColor=default;align=center;verticalAlign=middle;fontFamily=Helvetica;fontSize=11;fontColor=default;labelBackgroundColor=default;endArrow=classic;elbow=vertical;orthogonal=1;edgeStyle=orthogonalEdgeStyle;curved=1;" parent="WIyWlLk6GJQsqaUBKTNV-1" source="_xtLVecPUBUWVg5fJALY-72" target="_xtLVecPUBUWVg5fJALY-73" edge="1">
          <mxGeometry relative="1" as="geometry" />
        </mxCell>
        <mxCell id="_xtLVecPUBUWVg5fJALY-72" value="reduce grenades by 1" style="whiteSpace=wrap;html=1;rounded=1;glass=0;strokeWidth=1;shadow=0;fontSize=9;" parent="WIyWlLk6GJQsqaUBKTNV-1" vertex="1">
          <mxGeometry x="-720" y="989.06" width="110" height="30" as="geometry" />
        </mxCell>
        <mxCell id="_xtLVecPUBUWVg5fJALY-73" value="updateUI" style="whiteSpace=wrap;html=1;rounded=1;glass=0;strokeWidth=1;shadow=0;fontSize=9;" parent="WIyWlLk6GJQsqaUBKTNV-1" vertex="1">
          <mxGeometry x="-503" y="809.56" width="51.5" height="30" as="geometry" />
        </mxCell>
        <mxCell id="_xtLVecPUBUWVg5fJALY-74" style="shape=connector;rounded=0;orthogonalLoop=1;jettySize=auto;html=1;strokeColor=default;align=center;verticalAlign=middle;fontFamily=Helvetica;fontSize=11;fontColor=default;labelBackgroundColor=default;endArrow=classic;orthogonal=1;edgeStyle=orthogonalEdgeStyle;curved=1;" parent="WIyWlLk6GJQsqaUBKTNV-1" source="_xtLVecPUBUWVg5fJALY-75" target="_xtLVecPUBUWVg5fJALY-73" edge="1">
          <mxGeometry relative="1" as="geometry" />
        </mxCell>
        <mxCell id="_xtLVecPUBUWVg5fJALY-75" value="&lt;div&gt;AddMagazines (type, number)&lt;/div&gt;" style="whiteSpace=wrap;html=1;rounded=1;glass=0;strokeWidth=1;shadow=0;fontSize=9;" parent="WIyWlLk6GJQsqaUBKTNV-1" vertex="1">
          <mxGeometry x="-825" y="1059.06" width="153" height="30" as="geometry" />
        </mxCell>
        <mxCell id="_xtLVecPUBUWVg5fJALY-76" style="shape=connector;rounded=0;orthogonalLoop=1;jettySize=auto;html=1;strokeColor=default;align=center;verticalAlign=middle;fontFamily=Helvetica;fontSize=11;fontColor=default;labelBackgroundColor=default;endArrow=classic;orthogonal=1;edgeStyle=orthogonalEdgeStyle;curved=1;" parent="WIyWlLk6GJQsqaUBKTNV-1" source="_xtLVecPUBUWVg5fJALY-77" target="_xtLVecPUBUWVg5fJALY-73" edge="1">
          <mxGeometry relative="1" as="geometry" />
        </mxCell>
        <mxCell id="_xtLVecPUBUWVg5fJALY-77" value="AddGrenades(number)" style="whiteSpace=wrap;html=1;rounded=1;glass=0;strokeWidth=1;shadow=0;fontSize=9;" parent="WIyWlLk6GJQsqaUBKTNV-1" vertex="1">
          <mxGeometry x="-825" y="1119.06" width="110" height="30" as="geometry" />
        </mxCell>
        <mxCell id="_xtLVecPUBUWVg5fJALY-78" value="" style="shape=connector;rounded=0;orthogonalLoop=1;jettySize=auto;html=1;strokeColor=default;align=center;verticalAlign=middle;fontFamily=Helvetica;fontSize=11;fontColor=default;labelBackgroundColor=default;endArrow=classic;orthogonal=1;" parent="WIyWlLk6GJQsqaUBKTNV-1" source="_xtLVecPUBUWVg5fJALY-79" target="_xtLVecPUBUWVg5fJALY-84" edge="1">
          <mxGeometry relative="1" as="geometry">
            <mxPoint x="-190" y="840.2015624999999" as="sourcePoint" />
          </mxGeometry>
        </mxCell>
        <mxCell id="_xtLVecPUBUWVg5fJALY-79" value="Pickup(type, number)" style="whiteSpace=wrap;html=1;rounded=1;glass=0;strokeWidth=1;shadow=0;fontSize=9;fillColor=#d5e8d4;strokeColor=#82b366;" parent="WIyWlLk6GJQsqaUBKTNV-1" vertex="1">
          <mxGeometry x="-1141.5" y="1099.0615625" width="153" height="30" as="geometry" />
        </mxCell>
        <mxCell id="_xtLVecPUBUWVg5fJALY-80" style="shape=connector;rounded=0;orthogonalLoop=1;jettySize=auto;html=1;strokeColor=default;align=center;verticalAlign=middle;fontFamily=Helvetica;fontSize=11;fontColor=default;labelBackgroundColor=default;endArrow=classic;orthogonal=1;exitX=1;exitY=1;exitDx=0;exitDy=0;entryX=0;entryY=0.5;entryDx=0;entryDy=0;" parent="WIyWlLk6GJQsqaUBKTNV-1" source="_xtLVecPUBUWVg5fJALY-84" target="_xtLVecPUBUWVg5fJALY-77" edge="1">
          <mxGeometry relative="1" as="geometry" />
        </mxCell>
        <mxCell id="_xtLVecPUBUWVg5fJALY-81" value="grenadeType" style="edgeLabel;html=1;align=center;verticalAlign=middle;resizable=0;points=[];fontFamily=Helvetica;fontSize=11;fontColor=default;labelBackgroundColor=default;" parent="_xtLVecPUBUWVg5fJALY-80" vertex="1" connectable="0">
          <mxGeometry x="0.2939" y="-3" relative="1" as="geometry">
            <mxPoint x="-12" y="-11" as="offset" />
          </mxGeometry>
        </mxCell>
        <mxCell id="_xtLVecPUBUWVg5fJALY-82" style="shape=connector;rounded=0;orthogonalLoop=1;jettySize=auto;html=1;strokeColor=default;align=center;verticalAlign=middle;fontFamily=Helvetica;fontSize=11;fontColor=default;labelBackgroundColor=default;endArrow=classic;orthogonal=1;exitX=1;exitY=0;exitDx=0;exitDy=0;entryX=0;entryY=0.5;entryDx=0;entryDy=0;" parent="WIyWlLk6GJQsqaUBKTNV-1" source="_xtLVecPUBUWVg5fJALY-84" target="_xtLVecPUBUWVg5fJALY-75" edge="1">
          <mxGeometry relative="1" as="geometry" />
        </mxCell>
        <mxCell id="_xtLVecPUBUWVg5fJALY-83" value="guns" style="edgeLabel;html=1;align=center;verticalAlign=middle;resizable=0;points=[];fontFamily=Helvetica;fontSize=11;fontColor=default;labelBackgroundColor=default;" parent="_xtLVecPUBUWVg5fJALY-82" vertex="1" connectable="0">
          <mxGeometry x="0.1175" y="5" relative="1" as="geometry">
            <mxPoint x="-15" y="4" as="offset" />
          </mxGeometry>
        </mxCell>
        <mxCell id="_xtLVecPUBUWVg5fJALY-84" value="type?" style="rhombus;whiteSpace=wrap;html=1;fontSize=9;rounded=1;glass=0;strokeWidth=1;shadow=0;" parent="WIyWlLk6GJQsqaUBKTNV-1" vertex="1">
          <mxGeometry x="-970" y="1089.063333333333" width="53" height="50" as="geometry" />
        </mxCell>
        <mxCell id="_xtLVecPUBUWVg5fJALY-171" value="" style="rounded=0;orthogonalLoop=1;jettySize=auto;html=1;orthogonal=1;entryX=1;entryY=0.5;entryDx=0;entryDy=0;exitX=0;exitY=0;exitDx=0;exitDy=0;" parent="WIyWlLk6GJQsqaUBKTNV-1" source="_xtLVecPUBUWVg5fJALY-179" target="_xtLVecPUBUWVg5fJALY-180" edge="1">
          <mxGeometry relative="1" as="geometry" />
        </mxCell>
        <mxCell id="_xtLVecPUBUWVg5fJALY-172" value="" style="rounded=0;orthogonalLoop=1;jettySize=auto;html=1;orthogonal=1;exitX=0.06;exitY=0.484;exitDx=0;exitDy=0;exitPerimeter=0;" parent="WIyWlLk6GJQsqaUBKTNV-1" source="_xtLVecPUBUWVg5fJALY-179" target="_xtLVecPUBUWVg5fJALY-182" edge="1">
          <mxGeometry relative="1" as="geometry" />
        </mxCell>
        <mxCell id="_xtLVecPUBUWVg5fJALY-173" value="" style="rounded=0;orthogonalLoop=1;jettySize=auto;html=1;orthogonal=1;exitX=0;exitY=1;exitDx=0;exitDy=0;" parent="WIyWlLk6GJQsqaUBKTNV-1" source="_xtLVecPUBUWVg5fJALY-179" target="_xtLVecPUBUWVg5fJALY-201" edge="1">
          <mxGeometry relative="1" as="geometry" />
        </mxCell>
        <mxCell id="_xtLVecPUBUWVg5fJALY-174" value="" style="rounded=0;orthogonalLoop=1;jettySize=auto;html=1;orthogonal=1;entryX=0.5;entryY=1;entryDx=0;entryDy=0;exitX=0.39;exitY=0.126;exitDx=0;exitDy=0;exitPerimeter=0;" parent="WIyWlLk6GJQsqaUBKTNV-1" source="_xtLVecPUBUWVg5fJALY-179" target="_xtLVecPUBUWVg5fJALY-184" edge="1">
          <mxGeometry relative="1" as="geometry" />
        </mxCell>
        <mxCell id="_xtLVecPUBUWVg5fJALY-175" style="shape=connector;rounded=0;orthogonalLoop=1;jettySize=auto;html=1;strokeColor=default;align=center;verticalAlign=middle;fontFamily=Helvetica;fontSize=11;fontColor=default;labelBackgroundColor=default;endArrow=classic;orthogonal=1;exitX=0.61;exitY=0.851;exitDx=0;exitDy=0;exitPerimeter=0;" parent="WIyWlLk6GJQsqaUBKTNV-1" source="_xtLVecPUBUWVg5fJALY-179" target="_xtLVecPUBUWVg5fJALY-193" edge="1">
          <mxGeometry relative="1" as="geometry" />
        </mxCell>
        <mxCell id="_xtLVecPUBUWVg5fJALY-176" style="shape=connector;rounded=0;orthogonalLoop=1;jettySize=auto;html=1;strokeColor=default;align=center;verticalAlign=middle;fontFamily=Helvetica;fontSize=11;fontColor=default;labelBackgroundColor=default;endArrow=classic;orthogonal=1;exitX=1;exitY=1;exitDx=0;exitDy=0;" parent="WIyWlLk6GJQsqaUBKTNV-1" source="_xtLVecPUBUWVg5fJALY-179" target="_xtLVecPUBUWVg5fJALY-192" edge="1">
          <mxGeometry relative="1" as="geometry" />
        </mxCell>
        <mxCell id="_xtLVecPUBUWVg5fJALY-177" style="shape=connector;rounded=0;orthogonalLoop=1;jettySize=auto;html=1;strokeColor=default;align=center;verticalAlign=middle;fontFamily=Helvetica;fontSize=11;fontColor=default;labelBackgroundColor=default;endArrow=classic;orthogonal=1;exitX=0.902;exitY=0.376;exitDx=0;exitDy=0;exitPerimeter=0;" parent="WIyWlLk6GJQsqaUBKTNV-1" source="_xtLVecPUBUWVg5fJALY-179" target="_xtLVecPUBUWVg5fJALY-191" edge="1">
          <mxGeometry relative="1" as="geometry" />
        </mxCell>
        <mxCell id="_xtLVecPUBUWVg5fJALY-178" style="shape=connector;rounded=0;orthogonalLoop=1;jettySize=auto;html=1;strokeColor=default;align=center;verticalAlign=middle;fontFamily=Helvetica;fontSize=11;fontColor=default;labelBackgroundColor=default;endArrow=classic;orthogonal=1;exitX=1;exitY=0;exitDx=0;exitDy=0;" parent="WIyWlLk6GJQsqaUBKTNV-1" source="_xtLVecPUBUWVg5fJALY-179" target="_xtLVecPUBUWVg5fJALY-190" edge="1">
          <mxGeometry relative="1" as="geometry" />
        </mxCell>
        <mxCell id="_xtLVecPUBUWVg5fJALY-179" value="Player Input" style="rhombus;whiteSpace=wrap;html=1;rounded=1;glass=0;strokeWidth=1;shadow=0;fillColor=#ffe6cc;strokeColor=#d79b00;fontStyle=1" parent="WIyWlLk6GJQsqaUBKTNV-1" vertex="1">
          <mxGeometry x="-1408" y="748.31" width="80" height="80" as="geometry" />
        </mxCell>
        <mxCell id="_xtLVecPUBUWVg5fJALY-180" value="move" style="whiteSpace=wrap;html=1;rounded=1;glass=0;strokeWidth=1;shadow=0;" parent="WIyWlLk6GJQsqaUBKTNV-1" vertex="1">
          <mxGeometry x="-1533.5" y="742.31" width="100" height="30" as="geometry" />
        </mxCell>
        <mxCell id="_xtLVecPUBUWVg5fJALY-181" value="" style="shape=connector;rounded=0;orthogonalLoop=1;jettySize=auto;html=1;strokeColor=default;align=center;verticalAlign=middle;fontFamily=Helvetica;fontSize=11;fontColor=default;labelBackgroundColor=default;endArrow=classic;orthogonal=1;exitX=0;exitY=0.5;exitDx=0;exitDy=0;entryX=1;entryY=0.5;entryDx=0;entryDy=0;" parent="WIyWlLk6GJQsqaUBKTNV-1" source="_xtLVecPUBUWVg5fJALY-182" target="_xtLVecPUBUWVg5fJALY-253" edge="1">
          <mxGeometry relative="1" as="geometry">
            <mxPoint x="-1880.5" y="785.31" as="targetPoint" />
          </mxGeometry>
        </mxCell>
        <mxCell id="_xtLVecPUBUWVg5fJALY-182" value="jump" style="whiteSpace=wrap;html=1;rounded=1;glass=0;strokeWidth=1;shadow=0;" parent="WIyWlLk6GJQsqaUBKTNV-1" vertex="1">
          <mxGeometry x="-1533.5" y="796.3399999999999" width="100" height="30" as="geometry" />
        </mxCell>
        <mxCell id="_xtLVecPUBUWVg5fJALY-183" value="" style="shape=connector;rounded=0;orthogonalLoop=1;jettySize=auto;html=1;strokeColor=default;align=center;verticalAlign=middle;fontFamily=Helvetica;fontSize=11;fontColor=default;labelBackgroundColor=default;endArrow=classic;orthogonal=1;exitX=0;exitY=0.25;exitDx=0;exitDy=0;entryX=1;entryY=0.5;entryDx=0;entryDy=0;" parent="WIyWlLk6GJQsqaUBKTNV-1" source="_xtLVecPUBUWVg5fJALY-201" target="_xtLVecPUBUWVg5fJALY-255" edge="1">
          <mxGeometry relative="1" as="geometry">
            <mxPoint x="-1876.500000000001" y="850.06" as="targetPoint" />
          </mxGeometry>
        </mxCell>
        <mxCell id="_xtLVecPUBUWVg5fJALY-184" value="Show Menu" style="whiteSpace=wrap;html=1;rounded=1;glass=0;strokeWidth=1;shadow=0;" parent="WIyWlLk6GJQsqaUBKTNV-1" vertex="1">
          <mxGeometry x="-1433.5" y="657" width="100" height="30" as="geometry" />
        </mxCell>
        <mxCell id="_xtLVecPUBUWVg5fJALY-187" value="" style="shape=connector;rounded=0;orthogonalLoop=1;jettySize=auto;html=1;strokeColor=default;align=center;verticalAlign=middle;fontFamily=Helvetica;fontSize=11;fontColor=default;labelBackgroundColor=default;endArrow=classic;orthogonal=1;entryX=1;entryY=0.5;entryDx=0;entryDy=0;exitX=0;exitY=0.75;exitDx=0;exitDy=0;" parent="WIyWlLk6GJQsqaUBKTNV-1" source="_xtLVecPUBUWVg5fJALY-201" target="_xtLVecPUBUWVg5fJALY-254" edge="1">
          <mxGeometry relative="1" as="geometry">
            <mxPoint x="-1879.000000000001" y="872.06" as="targetPoint" />
          </mxGeometry>
        </mxCell>
        <mxCell id="_xtLVecPUBUWVg5fJALY-247" style="edgeStyle=none;shape=connector;rounded=0;orthogonalLoop=1;jettySize=auto;html=1;strokeColor=default;align=center;verticalAlign=middle;fontFamily=Helvetica;fontSize=11;fontColor=default;labelBackgroundColor=default;endArrow=classic;exitX=1;exitY=0.5;exitDx=0;exitDy=0;" parent="WIyWlLk6GJQsqaUBKTNV-1" source="_xtLVecPUBUWVg5fJALY-190" target="_xtLVecPUBUWVg5fJALY-9" edge="1">
          <mxGeometry relative="1" as="geometry" />
        </mxCell>
        <mxCell id="_xtLVecPUBUWVg5fJALY-190" value="Switch Weapon" style="whiteSpace=wrap;html=1;rounded=1;glass=0;strokeWidth=1;shadow=0;" parent="WIyWlLk6GJQsqaUBKTNV-1" vertex="1">
          <mxGeometry x="-1300" y="707.0899999999999" width="100" height="30" as="geometry" />
        </mxCell>
        <mxCell id="_xtLVecPUBUWVg5fJALY-248" style="edgeStyle=none;shape=connector;rounded=0;orthogonalLoop=1;jettySize=auto;html=1;strokeColor=default;align=center;verticalAlign=middle;fontFamily=Helvetica;fontSize=11;fontColor=default;labelBackgroundColor=default;endArrow=classic;entryX=0;entryY=0.5;entryDx=0;entryDy=0;exitX=1;exitY=0.5;exitDx=0;exitDy=0;" parent="WIyWlLk6GJQsqaUBKTNV-1" source="_xtLVecPUBUWVg5fJALY-191" target="_xtLVecPUBUWVg5fJALY-11" edge="1">
          <mxGeometry relative="1" as="geometry" />
        </mxCell>
        <mxCell id="_xtLVecPUBUWVg5fJALY-191" value="Reload" style="whiteSpace=wrap;html=1;rounded=1;glass=0;strokeWidth=1;shadow=0;" parent="WIyWlLk6GJQsqaUBKTNV-1" vertex="1">
          <mxGeometry x="-1300" y="758.0899999999999" width="100" height="30" as="geometry" />
        </mxCell>
        <mxCell id="_xtLVecPUBUWVg5fJALY-246" style="edgeStyle=none;shape=connector;rounded=0;orthogonalLoop=1;jettySize=auto;html=1;strokeColor=default;align=center;verticalAlign=middle;fontFamily=Helvetica;fontSize=11;fontColor=default;labelBackgroundColor=default;endArrow=classic;entryX=0;entryY=0.5;entryDx=0;entryDy=0;exitX=1;exitY=0.5;exitDx=0;exitDy=0;" parent="WIyWlLk6GJQsqaUBKTNV-1" source="_xtLVecPUBUWVg5fJALY-192" target="_xtLVecPUBUWVg5fJALY-13" edge="1">
          <mxGeometry relative="1" as="geometry" />
        </mxCell>
        <mxCell id="_xtLVecPUBUWVg5fJALY-192" value="Shoot" style="whiteSpace=wrap;html=1;rounded=1;glass=0;strokeWidth=1;shadow=0;" parent="WIyWlLk6GJQsqaUBKTNV-1" vertex="1">
          <mxGeometry x="-1305" y="810.8400000000001" width="100" height="30" as="geometry" />
        </mxCell>
        <mxCell id="_xtLVecPUBUWVg5fJALY-245" style="rounded=0;orthogonalLoop=1;jettySize=auto;html=1;entryX=0;entryY=0.5;entryDx=0;entryDy=0;exitX=1;exitY=0.5;exitDx=0;exitDy=0;" parent="WIyWlLk6GJQsqaUBKTNV-1" source="_xtLVecPUBUWVg5fJALY-193" target="_xtLVecPUBUWVg5fJALY-15" edge="1">
          <mxGeometry relative="1" as="geometry" />
        </mxCell>
        <mxCell id="_xtLVecPUBUWVg5fJALY-193" value="Throw Grenade" style="whiteSpace=wrap;html=1;rounded=1;glass=0;strokeWidth=1;shadow=0;" parent="WIyWlLk6GJQsqaUBKTNV-1" vertex="1">
          <mxGeometry x="-1305" y="864.94" width="100" height="26" as="geometry" />
        </mxCell>
        <mxCell id="_xtLVecPUBUWVg5fJALY-195" value="Player Input Controller" style="text;html=1;align=center;verticalAlign=middle;whiteSpace=wrap;rounded=0;fontStyle=1" parent="WIyWlLk6GJQsqaUBKTNV-1" vertex="1">
          <mxGeometry x="-1566.5" y="621.3199999999999" width="157.5" height="40" as="geometry" />
        </mxCell>
        <mxCell id="_xtLVecPUBUWVg5fJALY-200" value="" style="shape=connector;rounded=0;orthogonalLoop=1;jettySize=auto;html=1;strokeColor=default;align=center;verticalAlign=middle;fontFamily=Helvetica;fontSize=11;fontColor=default;labelBackgroundColor=default;endArrow=classic;orthogonal=1;exitX=0;exitY=0.5;exitDx=0;exitDy=0;entryX=1;entryY=0.5;entryDx=0;entryDy=0;" parent="WIyWlLk6GJQsqaUBKTNV-1" source="_xtLVecPUBUWVg5fJALY-180" target="_xtLVecPUBUWVg5fJALY-252" edge="1">
          <mxGeometry relative="1" as="geometry">
            <mxPoint x="-1168.25" y="1314" as="sourcePoint" />
            <mxPoint x="-1856.500000000001" y="733.31" as="targetPoint" />
          </mxGeometry>
        </mxCell>
        <mxCell id="_xtLVecPUBUWVg5fJALY-201" value="Look/Turn" style="whiteSpace=wrap;html=1;rounded=1;glass=0;strokeWidth=1;shadow=0;" parent="WIyWlLk6GJQsqaUBKTNV-1" vertex="1">
          <mxGeometry x="-1533.5" y="855.31" width="100" height="30" as="geometry" />
        </mxCell>
        <mxCell id="_xtLVecPUBUWVg5fJALY-252" value="set _moveInput vector" style="whiteSpace=wrap;html=1;rounded=1;glass=0;strokeWidth=1;shadow=0;" parent="WIyWlLk6GJQsqaUBKTNV-1" vertex="1">
          <mxGeometry x="-1759" y="771.8400000000001" width="130" height="30" as="geometry" />
        </mxCell>
        <mxCell id="_xtLVecPUBUWVg5fJALY-253" value="set _jumpInput to true" style="whiteSpace=wrap;html=1;rounded=1;glass=0;strokeWidth=1;shadow=0;" parent="WIyWlLk6GJQsqaUBKTNV-1" vertex="1">
          <mxGeometry x="-1755" y="813.06" width="125" height="30" as="geometry" />
        </mxCell>
        <mxCell id="_xtLVecPUBUWVg5fJALY-254" value="set _lookInput" style="whiteSpace=wrap;html=1;rounded=1;glass=0;strokeWidth=1;shadow=0;" parent="WIyWlLk6GJQsqaUBKTNV-1" vertex="1">
          <mxGeometry x="-1759" y="891.0900000000001" width="130" height="30" as="geometry" />
        </mxCell>
        <mxCell id="_xtLVecPUBUWVg5fJALY-255" value="set _verticalLook" style="whiteSpace=wrap;html=1;rounded=1;glass=0;strokeWidth=1;shadow=0;" parent="WIyWlLk6GJQsqaUBKTNV-1" vertex="1">
          <mxGeometry x="-1759" y="851.8400000000001" width="130" height="30" as="geometry" />
        </mxCell>
        <mxCell id="_xtLVecPUBUWVg5fJALY-256" value="Player Movement Controller" style="text;html=1;align=center;verticalAlign=middle;whiteSpace=wrap;rounded=0;fontStyle=1" parent="WIyWlLk6GJQsqaUBKTNV-1" vertex="1">
          <mxGeometry x="-1783" y="682.5899999999999" width="193" height="40" as="geometry" />
        </mxCell>
        <mxCell id="_xtLVecPUBUWVg5fJALY-257" value="&lt;div&gt;&lt;span&gt;&amp;lt;&amp;lt;MonoBehaviour&amp;gt;&amp;gt;&lt;/span&gt;&lt;/div&gt;&lt;div&gt;&lt;span&gt;Update()&lt;/span&gt;&lt;/div&gt;" style="whiteSpace=wrap;html=1;fontSize=11;rounded=1;arcSize=6;labelBackgroundColor=none;fillColor=#ffe6cc;strokeColor=#d79b00;fontStyle=1" parent="WIyWlLk6GJQsqaUBKTNV-1" vertex="1">
          <mxGeometry x="-1760.5" y="729.79" width="133" height="30" as="geometry" />
        </mxCell>
        <mxCell id="_xtLVecPUBUWVg5fJALY-258" style="rounded=0;orthogonalLoop=1;jettySize=auto;html=1;endArrow=none;startFill=0;" parent="WIyWlLk6GJQsqaUBKTNV-1" source="_xtLVecPUBUWVg5fJALY-259" target="_xtLVecPUBUWVg5fJALY-251" edge="1">
          <mxGeometry relative="1" as="geometry" />
        </mxCell>
        <mxCell id="_xtLVecPUBUWVg5fJALY-259" value="" style="verticalLabelPosition=bottom;verticalAlign=top;html=1;shape=card;whiteSpace=wrap;size=20;arcSize=12;fontStyle=1;strokeWidth=2;rounded=1;shadow=0;" parent="WIyWlLk6GJQsqaUBKTNV-1" vertex="1">
          <mxGeometry x="-1774" y="945.03" width="160" height="50" as="geometry" />
        </mxCell>
        <mxCell id="_xtLVecPUBUWVg5fJALY-260" value="CharacterController" style="text;html=1;align=center;verticalAlign=middle;whiteSpace=wrap;rounded=0;fontStyle=1" parent="WIyWlLk6GJQsqaUBKTNV-1" vertex="1">
          <mxGeometry x="-1714" y="950.03" width="60" height="40" as="geometry" />
        </mxCell>
        <mxCell id="_xtLVecPUBUWVg5fJALY-262" value="Player Character" style="text;html=1;align=center;verticalAlign=middle;whiteSpace=wrap;rounded=0;fontStyle=1" parent="WIyWlLk6GJQsqaUBKTNV-1" vertex="1">
          <mxGeometry x="-1803" y="513.06" width="130" height="40" as="geometry" />
        </mxCell>
        <mxCell id="F7fUJA4CXwOD2tqX9iZF-329" style="shape=connector;rounded=0;orthogonalLoop=1;jettySize=auto;html=1;strokeColor=default;align=center;verticalAlign=middle;fontFamily=Helvetica;fontSize=11;fontColor=default;labelBackgroundColor=default;endArrow=classic;entryX=0;entryY=0.5;entryDx=0;entryDy=0;" parent="WIyWlLk6GJQsqaUBKTNV-1" source="F7fUJA4CXwOD2tqX9iZF-266" target="F7fUJA4CXwOD2tqX9iZF-328" edge="1">
          <mxGeometry relative="1" as="geometry">
            <mxPoint x="-1938" y="355" as="sourcePoint" />
          </mxGeometry>
        </mxCell>
      </root>
    </mxGraphModel>
  </diagram>
</mxfile>
